<?xml version="1.0" encoding="UTF-8" standalone="no"?>
<svg
   xmlns:dc="http://purl.org/dc/elements/1.1/"
   xmlns:cc="http://creativecommons.org/ns#"
   xmlns:rdf="http://www.w3.org/1999/02/22-rdf-syntax-ns#"
   xmlns:svg="http://www.w3.org/2000/svg"
   xmlns="http://www.w3.org/2000/svg"
   xmlns:sodipodi="http://sodipodi.sourceforge.net/DTD/sodipodi-0.dtd"
   xmlns:inkscape="http://www.inkscape.org/namespaces/inkscape"
   width="900.000000"
   height="900.000000"
   viewBox="-75.000000 -75.000000 900.000000 900.000000"
   version="1.1"
   id="svg114"
   sodipodi:docname="monochrome-smooth.svg"
   inkscape:version="0.92.3 (2405546, 2018-03-11)">
  <metadata
     id="metadata120">
    <rdf:RDF>
      <cc:Work
         rdf:about="">
        <dc:format>image/svg+xml</dc:format>
        <dc:type
           rdf:resource="http://purl.org/dc/dcmitype/StillImage" />
        <dc:title></dc:title>
      </cc:Work>
    </rdf:RDF>
  </metadata>
  <defs
     id="defs118" />
  <sodipodi:namedview
     pagecolor="#ffffff"
     bordercolor="#666666"
     borderopacity="1"
     objecttolerance="10"
     gridtolerance="10"
     guidetolerance="10"
     inkscape:pageopacity="0"
     inkscape:pageshadow="2"
     inkscape:window-width="640"
     inkscape:window-height="480"
     id="namedview116"
     showgrid="false"
     inkscape:zoom="1.0133333"
     inkscape:cx="332.56579"
     inkscape:cy="450"
     inkscape:current-layer="camo_blobs" />
  <g
     id="g11"
     inkscape:label="background"
     inkscape:groupmode="layer">
    <rect
       id="background"
       style="fill:#000099"
       width="900.000000"
       height="900.000000"
       x="-75.000000"
       y="-75.000000"
       rx="50.000000" />
  </g>
  <g
     id="camo_blobs"
     inkscape:label="camo_blobs"
     inkscape:groupmode="layer"><path
   id="blob_0"
   style="fill:#cccccc"
   d="m 314.33197,284.93576 c -3.89912,12.25135 -7.17903,30.89834 -19.85117,33.06992 -15.38427,2.63634 -20.52476,-30.96645 -36.09207,-29.83283 -6.73504,0.49045 -6.91511,16.11767 -13.58029,15.0329 -6.62663,-1.07849 -3.92263,-13.1729 -8.06554,-18.45606 -5.88664,-7.50682 -19.71182,-8.33488 -22.73506,-17.38281 -1.75377,-5.24868 4.45116,-10.45272 4.47753,-15.98659 0.0782,-16.41841 -26.1376,-37.93605 -12.83174,-47.55502 13.78261,-9.96362 25.95139,31.50169 42.60763,28.06598 12.40593,-2.55899 8.3408,-29.91098 20.87286,-31.75566 10.79163,-1.58849 16.77221,13.95124 25.09131,21.00638 7.84779,6.65543 19.47797,10.60897 23.41599,20.11552 5.58795,13.48957 1.11867,29.76477 -3.30945,43.67827 z"
   inkscape:connector-curvature="0"
   sodipodi:nodetypes="sssssssssssss" />

  /&gt;
  <path
   id="blob_1"
   style="fill:#666666"
   d="m 298.54217,209.66522 c -1.15705,7.80523 5.05294,17.3454 0.33387,23.66922 -5.94107,7.96137 -20.39583,2.60477 -28.68543,8.07855 -7.79253,5.14557 -8.2372,21.67516 -17.57425,21.81626 -9.61629,0.14531 -10.11925,-17.71034 -18.77049,-21.91158 -8.13267,-3.94941 -19.77672,4.17201 -27.09917,-1.13081 -13.10699,-9.49191 -25.77297,-31.82083 -17.0549,-45.45479 9.72562,-15.20962 45.88256,12.11454 54.01151,-4.00503 7.66077,-15.19119 -34.69281,-27.88552 -27.22574,-43.17284 3.14102,-6.43061 14.33309,-3.46676 21.36413,-2.13141 7.77329,1.47632 13.37991,9.16808 21.11094,10.85172 10.77168,2.34581 22.0375,-0.79052 33.03753,-1.51932 8.25579,-0.54698 19.56299,-8.60374 24.72916,-2.14093 12.46223,15.59008 -15.2504,37.30781 -18.17716,57.05096 z"
   inkscape:connector-curvature="0"
   sodipodi:nodetypes="ssssssssssssss" />

  /&gt;
  <path
   id="blob_2"
   style="fill:#444444"
   d="m 771.86206,396.72488 c -3.74244,8.91221 -5.14857,21.88711 -14.19781,25.28479 -10.39878,3.90439 -20.53147,-13.39939 -31.40638,-11.13772 -5.93813,1.23496 -8.20684,9.12506 -13.30243,12.41467 -5.22388,3.37245 -11.88903,10.40154 -17.21276,7.18903 -20.18755,-12.1818 -3.01394,-47.10583 -6.30713,-70.45295 -1.79979,-12.75964 -14.01744,-26.93549 -7.33783,-37.95504 3.47654,-5.73537 12.68419,-6.96498 19.28045,-5.75251 16.87743,3.10228 25.73235,23.2226 40.87299,31.29926 12.41252,6.62137 33.4729,1.06297 39.97394,13.53894 5.7071,10.95236 -5.58142,24.18464 -10.36304,35.57153 z"
   inkscape:connector-curvature="0"
   sodipodi:nodetypes="sssssssssss" />

  /&gt;
  <path
   id="blob_3"
   style="fill:#888888"
   d="m 126.83087,264.24951 c -3.44173,6.23033 9.52555,16.51204 3.98354,20.97843 -9.14739,7.37199 -21.9167,-19.00959 -32.438082,-13.7826 -14.37442,7.14117 1.454118,37.59009 -11.766175,46.69196 -9.753059,6.71476 -24.398335,0.49511 -35.275921,-4.18338 -8.98713,-3.8654 -19.874753,-9.3709 -22.554477,-18.77988 -2.604721,-9.14563 3.788986,-19.12181 9.015812,-27.06583 5.44824,-8.28053 19.528941,-10.24747 22.189632,-19.79583 1.447693,-5.19531 -4.23495,-10.09536 -4.763359,-15.46265 -0.996069,-10.11752 -4.946182,-24.15433 3.122639,-30.33903 5.336206,-4.09017 13.400625,4.89537 19.911762,3.21916 12.909363,-3.32336 18.164693,-24.24545 31.488769,-24.65207 19.38874,-0.5917 36.56875,17.28489 47.9236,33.01196 6.94325,9.61678 15.17267,23.52362 9.9389,34.16782 -6.44224,13.10196 -33.71686,3.21213 -40.77664,15.99194 z"
   inkscape:connector-curvature="0"
   sodipodi:nodetypes="sssssssssssssss" />

  /&gt;
  <path
   id="blob_4"
   style="fill:#666666"
   d="m 238.84508,219.93366 c -1.77521,10.30913 -1.592,22.29005 -8.39116,30.23996 -11.47585,13.4181 -30.81068,24.81588 -48.22571,21.90771 -12.99223,-2.1696 -22.82632,-15.36487 -28.71542,-27.14722 -4.73748,-9.47828 4.04716,-24.25113 -3.6019,-31.58417 -12.74817,-12.22147 -42.89549,10.81232 -52.845514,-3.77799 -8.585966,-12.59011 0.04742,-36.70358 13.614864,-43.6429 15.97824,-8.17238 37.75186,29.12351 51.05923,17.08166 9.38156,-8.48937 -18.04162,-28.82696 -8.39734,-37.01665 9.34013,-7.9314 26.80814,3.95554 34.05757,13.83435 3.51881,4.79509 -3.57046,14.59093 1.44727,17.78423 16.32434,10.38888 38.91696,-31.8312 54.40785,-20.23615 16.73528,12.5265 -0.86231,41.95623 -4.40974,62.55717 z"
   inkscape:connector-curvature="0"
   sodipodi:nodetypes="sssssssssssss" />

  /&gt;
  <path
   id="blob_5"
   style="fill:#666666"
   d="m 616.4779,272.55774 c -2.27813,6.71988 -7.20836,12.4534 -8.86498,19.35284 -2.56959,10.70174 9.19565,29.93519 -1.37812,32.98896 -17.49804,5.05352 -16.12886,-34.50431 -31.03467,-44.97028 -4.56405,-3.20461 -10.70553,-3.19001 -16.17828,-4.26199 -11.97278,-2.3452 -34.55673,7.35753 -36.29553,-4.71823 -1.67181,-11.61052 23.7832,-6.0269 32.19958,-14.19779 3.20765,-3.11409 4.21513,-7.91555 5.77185,-12.1064 6.02715,-16.22569 -3.63449,-50.37511 13.67218,-50.09459 13.57821,0.22009 -3.12032,34.48452 9.44733,39.62946 13.57606,5.55776 24.35351,-30.27089 37.29517,-23.36353 10.74123,5.73293 2.29472,24.39065 1.11834,36.5091 -0.8335,8.58629 -2.98314,17.06252 -5.75287,25.23245 z"
   inkscape:connector-curvature="0"
   sodipodi:nodetypes="sssssssssssss" />

  /&gt;
  <path
   id="blob_6"
   style="fill:#ffffff"
   d="m 361.63815,445.23203 c 3.34082,11.40313 12.21323,30.52801 1.47559,35.61679 -15.44162,7.31808 -21.49093,-37.14602 -38.30051,-34.07422 -18.55654,3.39103 -7.39415,50.84199 -26.24484,50.13788 -18.66512,-0.69719 -16.33412,-33.71495 -22.2106,-51.44458 -3.6651,-11.05778 -11.37093,-22.84023 -8.05393,-34.00736 2.5636,-8.63069 15.60088,-10.53871 19.56327,-18.62329 4.86438,-9.92495 -4.63273,-25.35082 3.35693,-32.98837 10.8502,-10.37203 31.36351,-8.89769 44.95908,-2.53638 15.64329,7.31944 30.8975,24.31368 30.90786,41.58466 0.006,10.1791 -17.63054,14.36696 -18.18695,24.53085 -0.46007,8.40415 10.36769,13.7268 12.7341,21.80402 z"
   inkscape:connector-curvature="0"
   sodipodi:nodetypes="ssssssssssss" />

  /&gt;
  <path
   id="blob_7"
   style="fill:#444444"
   d="m 636.99426,30.2768 c 4.4847,9.979893 1.27918,25.287928 -7.37304,31.984926 -7.89498,6.110872 -20.68426,2.937943 -29.94019,-0.803863 -8.62641,-3.487313 -14.29002,-12.001219 -20.58521,-18.853005 -3.44525,-3.749873 -4.24657,-11.777808 -9.32879,-12.097742 -12.10192,-0.761836 -14.76934,31.144123 -25.65125,25.794268 -10.704,-5.262395 12.34237,-26.332066 4.68262,-35.475193 -10.39666,-12.4100763 -39.41973,11.211525 -48.51968,-2.178452 -6.27475,-9.2328802 1.28912,-26.0131174 10.91894,-31.659813 13.45132,-7.887531 30.49921,9.552615 46.04074,8.283082 3.11138,-0.2541572 6.81376,-0.7454199 8.82593,-3.132134 9.6796,-11.481325 -6.3178,-38.935304 7.67236,-44.393398 6.74418,-2.631159 13.34623,7.122293 17.21387,13.241791 4.60324,7.283372 -1.61957,20.333779 5.4433,25.268676 9.00695,6.2932474 28.51219,-14.744526 32.64569,-4.563944 5.37955,13.2495283 -35.55142,11.0912346 -34.60193,25.359662 1.07303,16.124902 35.9326,8.484519 42.55664,23.225139 z"
   inkscape:connector-curvature="0"
   sodipodi:nodetypes="sssssssssssssssss" />

  /&gt;
  <path
   id="blob_8"
   style="fill:#cccccc"
   d="m 310.66113,547.19916 c -1.15522,4.37685 -2.21018,8.78807 -2.98694,13.24768 -1.52579,8.76 4.61656,22.37889 -3.27636,26.47369 -10.96454,5.68833 -23.98627,-8.68939 -32.68723,-17.45703 -4.11645,-4.148 -2.6427,-13.54631 -8.14068,-15.52704 -11.09185,-3.996 -21.85725,18.44929 -32.62749,13.65357 -10.71226,-4.76991 -11.14328,-21.48763 -11.61998,-33.20417 -0.32502,-7.98841 2.84127,-15.88793 6.05728,-23.20761 3.3404,-7.60279 5.53195,-18.59641 13.49909,-20.9385 9.58798,-2.81858 17.88593,9.03703 27.29751,12.39798 3.50416,1.25136 7.22806,3.94702 10.78848,2.86605 13.09228,-3.97488 13.57778,-28.83195 27.11557,-30.81579 14.13751,-2.07173 33.71874,8.66082 36.35956,22.70315 2.54843,13.55105 -18.51632,20.85003 -24.73141,33.15848 -2.61397,5.17674 -3.56742,11.0423 -5.0474,16.64954 z"
   inkscape:connector-curvature="0"
   sodipodi:nodetypes="sssssssssssssss" />

  /&gt;
  <path
   id="blob_9"
   style="fill:#888888"
   d="m 313.38644,707.93805 c -4.58479,11.01197 -24.86244,-7.33839 -35.70633,-2.36908 -4.90607,2.24826 -4.94619,10.44836 -9.73529,12.9361 -5.37864,2.79398 -12.58358,-1.75148 -18.17347,0.59143 -11.86747,4.97404 -16.05911,31.55284 -27.94768,26.62945 -9.06664,-3.75475 5.039,-21.48209 -0.71518,-29.43139 -6.32519,-8.73815 -28.63099,-0.2261 -30.48766,-10.8523 -1.9969,-11.42884 24.79276,-10.68877 26.88974,-22.09967 1.32658,-7.2187 -9.86838,-11.85249 -10.92886,-19.11505 -1.20547,-8.25556 2.73336,-16.57251 5.6913,-24.37366 4.50542,-11.88239 5.49381,-32.14478 18.12491,-33.53949 12.23339,-1.35079 18.04393,17.22411 24.21844,27.87097 4.79623,8.27025 0.91367,22.77138 9.44794,27.08033 16.6888,8.42616 44.36182,-32.83843 53.58115,-16.57435 8.31653,14.67144 -37.72708,16.92716 -37.65457,33.79163 0.0638,14.84299 39.10072,15.75217 33.39556,29.45508 z"
   inkscape:connector-curvature="0"
   sodipodi:nodetypes="ssssssssssssssss" />

  /&gt;
  <path
   id="blob_10"
   style="fill:#000000"
   d="m 725.36523,190.0649 c -1.38963,11.49175 4.05532,27.84232 -5.56665,34.27732 -9.27219,6.20108 -22.22576,-11.81623 -32.57617,-7.65739 -11.57799,4.65208 -8.20574,34.12013 -20.38263,31.39705 -16.2317,-3.62984 7.37319,-40.66118 -6.75488,-49.43851 -14.86805,-9.23705 -41.4817,32.08165 -49.79279,16.67685 -9.24254,-17.1313 48.65366,-16.82465 45.90528,-36.09515 -2.52637,-17.71388 -53.83237,-2.62956 -49.79022,-20.06014 4.26743,-18.40204 43.62722,17.92445 56.52124,4.11899 14.1851,-15.18781 -26.58668,-51.04324 -8.7613,-61.727 9.44596,-5.661487 20.52038,10.37143 26.65857,19.51479 4.94026,7.35892 -1.40883,21.63513 6.41217,25.80547 13.82041,7.36936 31.92289,-25.75401 44.17859,-16.00163 8.34166,6.63781 -2.79204,21.14059 -3.85986,31.74736 -0.91918,9.13029 -1.08972,18.3319 -2.19135,27.44199 z"
   inkscape:connector-curvature="0"
   sodipodi:nodetypes="sssssssssssssss" />

  /&gt;
  <path
   id="blob_11"
   style="fill:#cccccc"
   d="m 592.29327,599.09576 c -1.63319,8.62295 -8.67039,18.62182 -17.36895,19.78693 -14.59706,1.95517 -22.77006,-20.06985 -36.85767,-24.36359 -4.63363,-1.41227 -9.89646,-1.51719 -14.5318,-0.11053 -5.91458,1.79486 -9.86907,7.53957 -15.3367,10.42206 -8.00164,4.21839 -17.62938,14.74836 -25.26602,9.90039 -8.55139,-5.42868 -6.1147,-21.06245 -2.00607,-30.32074 4.41478,-9.94819 23.65001,-9.55381 25.6051,-20.26056 1.58584,-8.68467 -12.67511,-13.93639 -13.62076,-22.71387 -1.77979,-16.51995 -0.674,-47.25696 15.94153,-47.22876 18.98845,0.0322 -0.82835,51.8576 18.03485,54.03522 10.70476,1.23579 6.33488,-25.68563 16.95239,-27.52612 11.89987,-2.06278 21.22385,12.85049 28.2749,22.65582 2.90077,4.03386 3.43513,9.3245 5.13331,13.99384 5.0538,13.89603 17.79755,27.2017 15.04589,41.72991 z"
   inkscape:connector-curvature="0"
   sodipodi:nodetypes="sssssssssssssss" />

  /&gt;
  <path
   id="blob_12"
   style="fill:#eeeeee"
   d="m 313.7428,71.801544 c -2.21006,14.895153 -34.80906,-5.64821 -44.82694,5.594216 -4.05536,4.551077 4.35134,14.19376 -0.16614,18.286521 -4.96938,4.502179 -13.33155,-1.684729 -20.03614,-1.797805 -8.84436,-0.149165 -19.72561,7.172114 -26.49559,1.478943 -4.41602,-3.713619 1.65878,-12.742144 -2.01392,-17.192246 -8.05189,-9.756242 -32.51616,0.626365 -36.16998,-11.484245 -2.18807,-7.252353 8.88848,-12.349995 14.24231,-17.709175 3.5403,-3.543843 7.20549,-7.220013 11.70105,-9.429657 5.17607,-2.54413 13.38678,0.59541 16.82554,-4.034844 6.11662,-8.235951 -10.68652,-25.6353132 -1.77931,-30.725052 8.37578,-4.78607015 14.46614,17.279374 24.04178,16.110077 11.18468,-1.365779 12.5823,-29.9225306 22.72839,-25.02161 13.90423,6.7162307 -9.80172,30.444927 -7.49722,45.713348 0.58586,3.881627 2.41567,7.826367 5.25107,10.541283 11.64682,11.151922 46.56171,3.719915 44.1951,19.670246 z"
   inkscape:connector-curvature="0"
   sodipodi:nodetypes="ssssssssssssssss" />

  /&gt;
  <path
   id="blob_13"
   style="fill:#888888"
   d="m 619.91351,577.41949 c 1.61327,11.30625 21.15042,22.649 13.7768,31.37043 -7.11636,8.41713 -21.83269,-12.17186 -32.06555,-8.07563 -7.02617,2.81259 -5.05574,16.4627 -12.10932,19.20582 -19.19953,7.46662 -48.30713,0.94307 -59.61999,-16.27295 -7.14223,-10.86911 -1.76432,-27.84358 5.50732,-38.62653 8.99309,-13.33566 33.35944,-10.4874 41.73602,-24.21869 5.90805,-9.68475 -8.37438,-28.81129 1.71906,-33.99029 16.36549,-8.39723 38.65745,13.18862 46.39508,29.87609 5.76025,12.42293 -7.27371,27.17565 -5.33942,40.73175 z"
   inkscape:connector-curvature="0"
   sodipodi:nodetypes="ssssssssss" />

  /&gt;
  <path
   id="blob_14"
   style="fill:#222222"
   d="m 669.42084,352.659 c -1.93991,10.92349 -7.1096,23.95417 -17.24445,28.46756 -11.87692,5.28918 -26.90105,-1.0732 -38.31537,-7.29816 -10.83319,-5.90804 -19.39613,-16.10512 -25.51526,-26.8205 -5.73421,-10.04135 -11.21833,-21.93067 -9.49578,-33.36496 2.64974,-17.58907 11.29619,-44.35332 29.07946,-44.74322 15.34011,-0.33633 15.19409,27.3676 26.75189,37.45962 8.12717,7.09647 22.197,6.43169 28.63587,15.08915 6.32621,8.50596 7.9572,20.77324 6.10364,31.21051 z"
   inkscape:connector-curvature="0"
   sodipodi:nodetypes="sssssssss" />

  /&gt;
  <path
   id="blob_15"
   style="fill:#888888"
   d="m 505.77011,431.49084 c -4.25187,7.05945 -18.84184,-4.498 -24.68829,1.31003 -6.35865,6.31687 3.47649,19.45567 -1.60178,26.84122 -7.1786,10.44017 -23.19573,21.18001 -34.61767,15.69653 -11.51463,-5.52797 -0.46827,-28.07355 -9.4773,-37.12796 -3.49377,-3.51136 -10.36683,-0.84389 -14.37985,-3.74765 -10.35401,-7.49198 -26.9988,-21.04858 -20.78623,-32.21725 5.24189,-9.42362 25.30317,8.73079 32.34531,0.56439 6.01893,-6.97983 -9.43916,-19.4661 -4.54221,-27.27414 8.10384,-12.9213 30.6495,-20.4294 43.90522,-12.88498 7.21766,4.10789 2.05578,16.92604 6.17581,24.13678 3.01683,5.27996 9.44289,7.88783 12.92975,12.8699 6.70472,9.57982 20.77013,21.81663 14.73724,31.83313 z"
   inkscape:connector-curvature="0"
   sodipodi:nodetypes="sssssssssssss" />

  /&gt;
  <path
   id="blob_16"
   style="fill:#000000"
   d="m 155.38827,665.45074 c -3.26982,6.91095 -0.54714,16.30365 -5.25762,22.32563 -3.71705,4.75195 -10.20156,7.00052 -16.09974,8.26898 -9.82805,2.11361 -20.11301,-0.56681 -30.11935,-1.53174 -4.440444,-0.4282 -8.802932,-2.24652 -13.249451,-1.88684 -7.138155,0.5774 -14.858706,10.81165 -20.506439,6.40826 -9.160754,-7.14238 4.498688,-23.45525 1.969055,-34.79254 -0.711189,-3.1874 -5.019181,-5.37272 -4.659149,-8.61859 0.797026,-7.1856 11.830199,-9.54091 14.244713,-16.35547 1.09244,-3.08323 -1.604597,-6.78678 -0.348274,-9.80694 1.369536,-3.29232 6.036997,-4.1968 7.849846,-7.2674 6.897899,-11.68365 -3.78434,-39.50108 9.783584,-39.5105 14.185585,-0.01 -3.497203,37.94134 10.286275,41.29493 14.06549,3.4222 14.54897,-35.7341 28.68303,-32.60718 8.35432,1.84824 2.0723,17.80813 7.24185,24.62622 7.71042,10.16921 30.17326,7.75813 32.45105,20.315 2.18191,12.02827 -17.04115,18.08805 -22.26938,29.13818 z"
   inkscape:connector-curvature="0"
   sodipodi:nodetypes="sssssssssssssssss" />

  /&gt;
  <path
   id="blob_17"
   style="fill:#888888"
   d="m 229.15387,124.07317 c 0.69807,16.62817 -6.81614,36.27817 -20.71903,45.42657 -6.02235,3.96284 -14.80907,2.8113 -21.62284,0.45644 -19.85973,-6.8636 -35.02055,-24.05615 -48.75267,-39.96044 -5.78322,-6.69801 -15.29027,-14.06934 -13.65566,-22.76629 3.77677,-20.094375 33.82227,-23.319008 48.49683,-37.556461 6.73958,-6.538834 8.7496,-19.693982 17.91398,-21.741531 6.00353,-1.341336 13.36133,2.714974 16.68119,7.893783 5.45175,8.504457 -2.26967,20.54537 0.3426,30.303619 3.75147,14.01374 20.70711,23.44989 21.3156,37.94431 z"
   inkscape:connector-curvature="0"
   sodipodi:nodetypes="ssssssssss" />

  /&gt;
  <path
   id="blob_18"
   style="fill:#222222"
   d="m 198.70778,265.935 c -3.73528,9.53973 -18.4897,9.18094 -26.50128,15.56634 -11.17027,8.90295 -15.99703,36.12037 -29.39879,31.17768 -19.4112,-7.15903 10.39263,-46.2766 -3.06345,-61.99221 -6.45783,-7.54222 -27.11895,3.68101 -29.17001,-6.03402 -2.65826,-12.5911 24.94672,-11.31181 31.418,-22.43496 7.31776,-12.57811 -9.8157,-40.78653 4.49527,-43.42373 10.71483,-1.97451 6.25756,22.33095 14.73353,29.17668 5.81422,4.69592 16.30933,0.4848 21.69271,5.66901 13.11634,12.63107 22.43312,35.33925 15.79402,52.29521 z"
   inkscape:connector-curvature="0"
   sodipodi:nodetypes="ssssssssss" />

  /&gt;
  <path
   id="blob_19"
   style="fill:#888888"
   d="m 304.60614,662.52484 c -5.91565,5.1056 -15.4828,2.27512 -23.08243,4.09381 -6.30649,1.50923 -14.32627,0.78065 -18.61752,5.64221 -9.80898,11.11259 7.18517,41.92373 -7.51448,43.82789 -14.28326,1.85021 -8.77165,-28.18945 -17.91159,-39.32032 -2.84599,-3.46592 -6.59553,-6.68126 -10.92449,-7.85278 -13.90798,-3.76383 -36.23953,16.79273 -43.03129,4.08563 -5.09412,-9.53089 17.40936,-14.77133 20.48021,-25.13269 2.35323,-7.94006 -3.47424,-16.45907 -2.6655,-24.70093 0.70463,-7.18085 0.71095,-16.30094 6.46133,-20.65918 5.36918,-4.06931 14.26704,2.59329 20.20231,-0.59417 5.77273,-3.10018 5.54455,-12.99228 11.33398,-16.06116 6.98004,-3.70001 16.39004,-3.44564 23.69611,-0.44025 8.13338,3.34572 15.62679,10.5637 18.39904,18.90998 2.48631,7.48538 -7.75321,17.11141 -3.0751,23.46185 7.18,9.74671 29.57688,-4.22214 35.78989,6.16772 5.15331,8.61777 -1.93904,22.01185 -9.54047,28.57239 z"
   inkscape:connector-curvature="0"
   sodipodi:nodetypes="sssssssssssssssss" />

  /&gt;
  <path
   id="blob_20"
   style="fill:#aaaaaa"
   d="m 359.43048,148.58603 c -10.77494,9.213 -28.32281,-3.26541 -41.87884,-7.41422 -7.71427,-2.36094 -14.15582,-8.50065 -22.11106,-9.84158 -14.73434,-2.4836 -35.2017,15.35948 -44.66553,3.79639 -12.825,-15.66984 10.99033,-38.983481 17.00992,-58.317111 2.67162,-8.580663 -0.3777,-24.061561 8.47776,-25.593273 17.45032,-3.018347 15.57378,37.291927 32.67535,41.891979 17.01892,4.57782 34.34437,-29.473112 49.04391,-19.750801 20.91923,13.836017 20.5111,58.929346 1.44849,75.228616 z"
   inkscape:connector-curvature="0"
   sodipodi:nodetypes="sssssssss" />

  /&gt;
  <path
   id="blob_21"
   style="fill:#444444"
   d="m 420.26706,692.53094 c 2.54225,9.36884 -6.25897,18.81108 -12.33627,26.38105 -9.28252,11.56241 -21.31891,32.13252 -35.26883,27.10718 -11.52762,-4.15273 -3.84641,-24.37344 -8.16397,-35.84034 -2.72299,-7.23191 -6.026,-14.50448 -11.03794,-20.38629 -8.38025,-9.83473 -28.96677,-10.8309 -30.72635,-23.63147 -1.10365,-8.02887 6.72952,-17.37684 14.5582,-19.47272 15.30593,-4.09766 29.80658,11.09853 43.67712,18.75818 13.92673,7.69068 35.13173,11.73052 39.29804,27.08441 z"
   inkscape:connector-curvature="0"
   sodipodi:nodetypes="sssssssss" />

  /&gt;
  <path
   id="blob_22"
   style="fill:#666666"
   d="m 486.90741,512.3139 c -3.54126,15.55426 -31.97906,-0.0549 -47.82294,1.8017 -5.55252,0.65065 -11.69251,0.3269 -16.4516,3.26032 -6.89496,4.24992 -6.83109,19.25832 -14.93014,19.17059 -6.65516,-0.0721 -7.70042,-10.87148 -11.92429,-16.01495 -2.71958,-3.31169 -7.84014,-5.32285 -8.62149,-9.53626 -0.95132,-5.13003 7.35573,-9.67667 5.63599,-14.6026 -5.94739,-17.03534 -43.51841,-9.63297 -46.68625,-27.39639 -2.30539,-12.92729 11.93141,-29.06766 24.98935,-30.45322 14.94028,-1.58529 20.63518,31.47834 35.26697,28.0672 6.45524,-1.50492 1.94087,-16.89666 8.47897,-17.98669 4.64843,-0.77499 7.6006,6.00015 9.85104,10.14068 2.71,4.98606 1.89104,11.25041 3.79486,16.59647 1.03649,2.91052 1.95402,6.09476 4.11017,8.30755 14.28351,14.65875 58.85284,8.6893 54.30936,28.6456 z"
   inkscape:connector-curvature="0"
   sodipodi:nodetypes="sssssssssssssss" />

  /&gt;
  <path
   id="blob_23"
   style="fill:#666666"
   d="m 157.32788,48.246864 c 0.25515,12.226176 15.18248,25.567991 8.36496,35.720131 -5.14726,7.664923 -18.36047,6.450178 -27.35338,4.359009 C 130.07536,86.404308 125.90261,75.126885 117.5492,73.64064 103.65935,71.169346 87.550008,93.628342 76.67865,84.636749 68.489715,77.863762 78.619019,63.462057 79.039246,52.843422 79.319795,45.754287 82.244276,37.941842 79.145569,31.559635 73.932687,20.822998 50.351947,21.47829 50.899002,9.555613 51.262511,1.6331849 63.307831,-1.0893639 70.928467,-3.285477 c 6.241316,-1.798621 13.338097,-1.9239767 19.485153,0.174301 7.91372,2.70132284 11.64524,14.574278 19.98671,15.160752 7.85206,0.552064 14.05222,-7.1685152 20.62585,-11.498287 13.14412,-8.6574636 23.62569,-36.412954 37.40776,-28.812043 10.52232,5.803134 -1.67867,23.9945201 -3.36631,35.89189 -1.93563,13.645598 -8.02731,26.83653 -7.73975,40.615728 z"
   inkscape:connector-curvature="0"
   sodipodi:nodetypes="sssssssssssssss" />

  /&gt;
  <path
   id="blob_24"
   style="fill:#eeeeee"
   d="m 521.93933,76.901512 c -2.45746,15.225456 -10.5073,37.276718 -25.89285,38.343748 -19.50283,1.35257 -19.67872,-44.270221 -39.21719,-43.608694 -10.81235,0.366081 -9.83383,29.188734 -20.02033,25.54512 -12.52204,-4.479014 7.58474,-28.396695 0.88888,-39.887069 -8.62457,-14.800134 -48.26143,-7.467349 -45.2633,-24.33265 2.00719,-11.290982 24.95332,2.120942 34.06067,-4.848367 7.58363,-5.803295 3.56835,-20.7297205 11.30954,-26.321112 10.60978,-7.6633518 30.13894,-12.89772 39.11844,-3.376003 9.57159,10.1495687 -14.71732,30.495973 -6.03446,41.415546 8.66044,10.891373 30.86835,-5.412733 41.60266,3.441628 8.98192,7.408872 11.30321,22.133324 9.44794,33.627853 z"
   inkscape:connector-curvature="0"
   sodipodi:nodetypes="ssssssssssss" />

  /&gt;
  <path
   id="blob_25"
   style="fill:#aaaaaa"
   d="m 684.15033,44.173115 c -5.12136,6.281223 -16.66494,5.269357 -21.12512,12.036102 -7.64164,11.593477 8.80053,38.069908 -4.68152,41.392193 -14.92253,3.67725 -11.24462,-33.455644 -25.87537,-38.16153 -15.531,-4.995447 -35.22516,29.209472 -45.93323,16.900788 -8.74226,-10.049035 15.35998,-22.377348 18.8559,-35.229927 1.06973,-3.932784 1.38551,-8.242288 0.4856,-12.217368 -1.08512,-4.793158 -6.42596,-8.149071 -6.87342,-13.04311 -1.22532,-13.4020144 1.32064,-30.392936 12.03327,-38.538801 5.85598,-4.45288 14.71057,-1.063706 22.05865,-0.708232 5.15604,0.249431 12.05107,-1.975049 15.35797,1.9887 6.44375,7.723666 -8.60588,22.9663462 -1.55102,30.136137 11.54971,11.737873 39.46515,-14.8961963 49.37134,-1.741691 7.84299,10.414777 -3.88431,27.082119 -12.12305,37.186739 z"
   inkscape:connector-curvature="0"
   sodipodi:nodetypes="ssssssssssssss" />

  /&gt;
  <path
   id="blob_26"
   style="fill:#666666"
   d="m 539.46838,491.58969 c -10.8573,16.36092 -24.83557,40.09498 -44.42086,38.68894 -10.3198,-0.74087 -11.98966,-17.29541 -20.254,-23.52018 -9.16946,-6.9065 -22.70541,-6.76878 -31.28577,-14.3948 -8.06357,-7.16672 -11.86577,-18.06121 -16.88507,-27.61054 -4.95542,-9.42778 -17.35943,-19.47077 -12.99969,-29.18838 8.61097,-19.19336 43.12366,-6.77468 60.13299,-19.15274 8.8781,-6.46079 8.21218,-26.02155 19.16528,-26.79093 28.6938,-2.01552 53.19632,34.41665 59.52558,62.47617 3.04901,13.51718 -5.31653,27.94667 -12.97846,39.49246 z"
   inkscape:connector-curvature="0"
   sodipodi:nodetypes="ssssssssss" />

  /&gt;
  <path
   id="blob_27"
   style="fill:#cccccc"
   d="m 377.15585,659.83606 c -0.34931,6.85284 -11.08508,8.10448 -16.37021,12.48065 -3.97331,3.28997 -8.58387,6.09511 -11.51364,10.34101 -5.71883,8.28787 -1.17028,25.56468 -10.89551,28.17504 -11.90478,3.19539 -17.41123,-18.4973 -28.81524,-23.17523 -7.31101,-2.99897 -16.06665,0.037 -23.5853,-2.39496 -6.89418,-2.22999 -12.90495,-6.69429 -18.81573,-10.88537 -6.05281,-4.29179 -16.16257,-7.11042 -16.89443,-14.4942 -1.03717,-10.46422 12.40204,-17.0324 19.44445,-24.84137 6.07661,-6.73807 11.74998,-14.33391 19.59332,-18.89557 5.39477,-3.13759 12.71063,-1.91258 17.96048,-5.28705 7.57678,-4.87016 11.07268,-14.31846 17.70572,-20.4118 5.70929,-5.24476 11.13401,-12.51792 18.79635,-13.69776 8.18136,-1.25975 16.0911,4.29952 23.53965,7.91071 6.70427,3.25035 17.77893,4.83238 18.71301,12.22424 2.17255,17.19255 -35.74856,21.04886 -35.08322,38.36536 0.46001,11.97259 26.83024,12.62041 26.2203,24.5863 z"
   inkscape:connector-curvature="0"
   sodipodi:nodetypes="sssssssssssssssss" />

  /&gt;
  <path
   id="blob_28"
   style="fill:#888888"
   d="m 398.66894,78.990303 c -1.12765,10.873476 -18.84611,12.283702 -29.63476,14.046974 -7.47854,1.222276 -15.46096,-5.304542 -22.57355,-2.690399 -8.14829,2.994803 -9.11675,20.332812 -17.70938,19.095782 -9.13206,-1.31469 -6.33224,-17.770641 -12.33209,-24.779544 -6.05335,-7.0714 -20.41891,-7.145157 -22.78281,-16.148475 -2.39094,-9.106356 11.53913,-16.14548 12.04761,-25.546745 0.43308,-8.007142 -6.95081,-14.770417 -7.8544,-22.73819 -1.08806,-9.594403 -3.91245,-22.1505808 3.08642,-28.802811 9.20269,-8.746888 26.73241,-7.925274 38.02942,-2.13089 7.87284,4.0380801 6.43745,18.2492012 14.25635,22.390755 8.77221,4.646504 25.68987,-9.9320231 29.7674,-0.88131 6.16993,13.69515 -32.09988,17.885993 -30.84214,32.854069 1.63094,19.409265 48.55114,15.957023 46.54193,35.330784 z"
   inkscape:connector-curvature="0"
   sodipodi:nodetypes="ssssssssssssss" />

  /&gt;
  <path
   id="blob_29"
   style="fill:#888888"
   d="m 717.70679,711.36432 c -1.28247,6.98113 6.81996,13.9177 4.84497,20.73535 -3.75123,12.94919 -15.75361,31.65151 -28.82892,28.36676 -14.44546,-3.62895 -7.32479,-29.00908 -13.2572,-42.67096 -1.19642,-2.75526 -3.26595,-5.07368 -4.46271,-7.8288 -1.3385,-3.08141 -1.47211,-6.62838 -2.99268,-9.62414 -4.06824,-8.01511 -17.79539,-12.84368 -16.0581,-21.66266 1.05564,-5.35873 9.41929,-5.53664 14.02081,-8.47882 13.24636,-8.46962 24.08329,-21.70919 39.09174,-26.39392 6.59347,-2.05809 14.91324,-3.97287 20.72033,-0.23291 8.95658,5.76832 13.83759,18.63299 12.8924,29.24432 -1.37456,15.43174 -23.17137,23.30793 -25.97064,38.54578 z"
   inkscape:connector-curvature="0"
   sodipodi:nodetypes="ssssssssssss" />

  /&gt;
  <path
   id="blob_30"
   style="fill:#aaaaaa"
   d="m 566.19177,494.93866 c -1.82186,3.51968 -6.64341,4.36443 -9.64612,6.95114 -15.21866,13.11024 -22.02514,41.99419 -42.07965,43.13559 -13.35755,0.76025 -29.95368,-12.03595 -31.10656,-25.36536 -1.66498,-19.25011 27.8959,-27.31166 37.96673,-43.80157 4.4027,-7.20895 7.39218,-15.31984 9.45551,-23.51102 4.50284,-17.87578 -11.29727,-48.96389 6.13403,-54.9613 13.47236,-4.6353 24.55618,17.35123 29.87372,30.56918 8.33367,20.7152 9.66659,47.1537 -0.59766,66.98334 z"
   inkscape:connector-curvature="0"
   sodipodi:nodetypes="sssssssss" />

  /&gt;
  <path
   id="blob_31"
   style="fill:#666666"
   d="M 486.42319,48.771412 C 475.02804,61.31908 454.54492,27.394406 438.3183,32.292374 c -4.96717,1.499328 -5.74805,8.739803 -9.47522,12.349369 -10.27997,9.955609 -23.91804,34.226685 -34.88111,25.02869 -12.27412,-10.297975 30.30188,-30.420289 20.80961,-43.32762 -10.91039,-14.835639 -45.16622,23.767867 -54.66562,7.991492 -5.85588,-9.725292 19.57898,-16.139334 20.11902,-27.478687 0.40314,-8.4649564 -16.51442,-14.1354098 -13.00165,-21.847637 6.80688,-14.944399 32.38288,-5.512322 48.47607,-8.780045 18.10565,-3.676351 40.52565,-24.738552 54.07157,-12.175186 8.96184,8.311797 -7.04913,24.174047 -5.34357,36.277418 2.47452,17.560244 33.91801,35.313183 21.99579,48.441244 z"
   inkscape:connector-curvature="0"
   sodipodi:nodetypes="ssssssssssss" />

  /&gt;
  <path
   id="blob_32"
   style="fill:#444444"
   d="m 429.34226,318.00461 c -6.85649,8.52393 -21.62765,5.15453 -30.9795,10.83008 -13.23733,8.03361 -18.77031,35.3718 -33.84216,31.82141 -17.92792,-4.22319 -18.04444,-33.45304 -19.12705,-51.83982 -0.6654,-11.30116 0.89417,-24.1578 7.9358,-33.02203 6.86711,-8.64456 20.03491,-9.3419 29.61831,-14.82315 8.55786,-4.89468 15.08305,-17.63556 24.81925,-16.08597 13.85151,2.20458 22.58602,19.23632 26.46045,32.71643 3.74733,13.03793 3.61757,29.83259 -4.8851,40.40305 z"
   inkscape:connector-curvature="0"
   sodipodi:nodetypes="sssssssss" />

  /&gt;
  <path
   id="blob_33"
   style="fill:#444444"
   d="m 265.26001,130.55844 c -7.6711,10.52038 -26.59601,1.44821 -38.46306,6.80519 -5.59626,2.52625 -8.61064,13.51417 -14.40433,11.48113 -9.21721,-3.23439 -3.09712,-19.41518 -6.47761,-28.57982 -7.37852,-20.00345 -45.34804,-42.077557 -29.7562,-56.619734 11.06236,-10.317619 25.01493,30.499451 38.60511,23.855961 15.91095,-7.777989 -9.99214,-44.654693 5.72258,-52.821891 11.57782,-6.017185 26.8926,8.152656 34.27153,18.913883 14.64285,21.354749 25.75731,56.043681 10.50198,76.965281 z"
   inkscape:connector-curvature="0"
   sodipodi:nodetypes="sssssssss" />

  /&gt;
  <path
   id="blob_34"
   style="fill:#888888"
   d="M 71.087387,211.62524 C 68.433105,231.68477 39.572358,248.50677 19.817875,244.1261 3.8134573,240.57703 0.90742247,217.22878 -6.694466,202.70471 c -2.99732,-5.72664 -5.57526,-11.71545 -7.46219,-17.8975 -4.097864,-13.42564 -14.751662,-28.84628 -8.261618,-41.29294 4.651537,-8.92076 18.0445993,-9.11407 27.655853,-12.08737 14.798378,-4.57798 36.264288,-21.00628 45.652188,-8.68487 9.806291,12.87055 -23.709561,27.55336 -21.403002,43.56879 2.922959,20.29536 44.290373,24.98684 41.600622,45.31442 z"
   inkscape:connector-curvature="0"
   sodipodi:nodetypes="sssssssss" />

  /&gt;
  <path
   id="blob_35"
   style="fill:#666666"
   d="m 336.55588,320.13403 c -2.36045,15.0111 33.45477,27.79919 23.35296,39.15076 -8.98611,10.09785 -23.55333,-17.93635 -37.00332,-16.58929 -15.34823,1.53717 -22.25661,25.70217 -37.63278,26.92865 -11.69014,0.93246 -28.68293,-4.29371 -31.49497,-15.67884 -3.93844,-15.94562 21.87904,-25.08243 28.81445,-39.97116 2.42665,-5.20945 3.54454,-11.00929 4.21955,-16.71643 1.02596,-8.67435 -4.1707,-18.36773 -0.30914,-26.20261 2.13432,-4.33041 6.76727,-8.46088 11.58984,-8.68597 6.7387,-0.31452 11.5121,7.03622 17.25488,10.57593 6.16021,3.797 11.97823,8.2038 18.45203,11.43728 9.63107,4.81046 28.2213,1.12467 30.09277,11.72635 2.10886,11.94647 -25.45184,12.04142 -27.33627,24.02533 z"
   inkscape:connector-curvature="0"
   sodipodi:nodetypes="sssssssssssss" />

  /&gt;
  <path
   id="blob_36"
   style="fill:#888888"
   d="m 551.66193,176.72418 c 4.6196,8.53059 5.84733,23.88585 -2.39331,29.00479 -11.6542,7.2394 -25.07665,-11.38665 -38.27204,-15.14311 -13.6912,-3.89761 -28.00723,-5.11612 -42.0314,-7.55804 -10.74487,-1.87092 -28.92724,4.94859 -32.26511,-5.43462 -2.51406,-7.82058 13.47779,-10.25046 17.36432,-17.48764 3.16145,-5.88699 0.59276,-13.91767 4.0571,-19.63167 2.90377,-4.7894 8.94867,-6.77537 13.01743,-10.62446 4.73181,-4.47636 7.38103,-11.45658 13.17617,-14.43048 10.84613,-5.56593 28.44774,-13.59357 36.32071,-4.28582 9.45289,11.1756 -17.94637,28.64408 -12.30789,42.1518 6.32609,15.15498 35.51382,8.99843 43.33402,23.43925 z"
   inkscape:connector-curvature="0"
   sodipodi:nodetypes="ssssssssssss" />

  /&gt;
  <path
   id="blob_37"
   style="fill:#888888"
   d="m 652.0033,111.24252 c -2.5598,14.57197 26.88222,25.36638 21.16693,39.013 -3.60009,8.59606 -17.60244,6.72018 -26.86609,7.73874 -9.96299,1.09546 -19.99084,-2.01873 -30.01239,-1.84601 -9.3512,0.16117 -19.32166,6.34542 -27.92883,2.68654 -9.26403,-3.9381 -12.7461,-15.59196 -18.77668,-23.65191 -5.23734,-6.99979 -17.70491,-13.09416 -15.10431,-21.44063 4.38405,-14.070325 40.54164,-0.57694 41.48664,-15.284112 0.93896,-14.613136 -40.96792,-5.835028 -38.93885,-20.337037 1.39144,-9.944758 20.80666,-1.063827 29.50458,-6.08184 10.27571,-5.928269 12.16978,-23.658745 23.66791,-26.578957 6.88659,-1.749008 13.37509,4.800469 20.05359,7.225731 4.76994,1.732182 12.02194,0.69599 14.29681,5.232262 4.83271,9.636769 -16.29377,22.821166 -9.25726,30.988777 10.96596,12.728706 42.83477,-22.366495 49.89715,-7.121994 6.21797,13.421775 -30.62992,14.888386 -33.1892,29.45744 z"
   inkscape:connector-curvature="0"
   sodipodi:nodetypes="ssssssssssssssss" />

  /&gt;
  <path
   id="blob_38"
   style="fill:#888888"
   d="m 508.30286,699.74115 c 5.16017,18.14912 -1.10523,47.29448 -18.98325,53.32727 -10.36684,3.4982 -19.7504,-10.20033 -27.49295,-17.93091 -9.52677,-9.51203 -9.82682,-28.296 -22.1153,-33.79431 -11.93817,-5.34158 -30.20249,15.71805 -38.7962,5.85901 -11.8588,-13.60489 10.1585,-34.63684 15.31717,-51.9317 4.17111,-13.984 -1.80303,-39.83953 12.64166,-41.91352 17.37595,-2.49485 12.17829,38.396 28.77866,44.10352 4.55945,1.56762 9.39927,-6.90572 13.68222,-4.69159 7.02279,3.63052 2.2901,16.18804 6.69583,22.75232 7.20172,10.73015 26.73798,11.78969 30.27216,24.21991 z"
   inkscape:connector-curvature="0"
   sodipodi:nodetypes="sssssssssss" />

  /&gt;
  <path
   id="blob_39"
   style="fill:#cccccc"
   d="m 237.05817,37.010593 c -1.39822,6.242443 -11.56724,6.012721 -17.89931,6.922619 -5.54625,0.796978 -11.25891,-2.514191 -16.75096,-1.403579 -5.5609,1.124534 -9.86919,5.646593 -15.07605,7.899749 -6.72307,2.909259 -15.0818,11.83428 -20.76114,7.207344 -7.23549,-5.894725 11.53307,-22.76921 3.6467,-27.759718 C 152.76895,18.8356 131.93199,78.854161 118.1671,63.462959 107.4097,51.434582 139.12308,38.888141 148.77594,25.956566 c 4.05373,-5.430628 11.18975,-10.030517 11.44542,-16.80245 0.39411,-10.4390693 -22.84449,-19.593011 -15.64017,-27.157883 7.56388,-7.942424 19.05323,18.97157079 29.2806,15.00985 5.11286,-1.9805417 1.49597,-11.96358 5.76335,-15.406456 2.80001,-2.259026 7.40818,-0.06218 10.67991,-1.558533 13.57673,-6.209437 19.11011,-31.488504 33.8776,-29.296244 8.117,1.204983 13.70722,12.631426 13.14001,20.817751 -1.0506,15.162933 -29.87693,19.6416697 -29.42352,34.834191 0.4204,14.086491 32.23928,16.861782 29.15903,30.613801 z"
   inkscape:connector-curvature="0"
   sodipodi:nodetypes="sssssssssssssssss" />

  /&gt;
  <path
   id="blob_40"
   style="fill:#aaaaaa"
   d="m 664.63916,716.27631 c 0.20409,7.20831 7.99849,17.31321 2.14642,21.52685 -6.66472,4.79878 -15.16059,-13.82712 -22.4754,-10.09344 -11.45921,5.84909 3.35436,31.46542 -7.84918,37.79046 -4.97965,2.8113 -10.76,-3.87921 -16.18402,-5.69037 -13.23982,-4.42095 -30.49797,-2.33781 -39.92444,-12.63244 -5.83969,-6.37751 -5.15042,-16.69078 -5.62213,-25.32514 -0.37326,-6.83228 2.43165,-13.56514 2.23919,-20.4049 -0.33991,-12.07984 -9.18717,-24.10825 -5.97491,-35.75812 3.20737,-11.63214 11.35504,-27.51481 23.42096,-27.60077 17.11352,-0.12193 16.81552,36.36235 33.77319,38.66986 7.81917,1.06399 12.64069,-16.40221 19.77094,-13.02124 5.623,2.66627 -3.02272,14.78534 1.91675,18.57068 8.00633,6.13562 24.284,-13.22335 29.87353,-4.82666 5.05243,7.58985 -11.75411,14.51645 -14.4447,23.22815 -1.53266,4.96249 -0.81319,10.37538 -0.6662,15.56708 z"
   inkscape:connector-curvature="0"
   sodipodi:nodetypes="ssssssssssssssss" />

  /&gt;
  <path
   id="blob_41"
   style="fill:#666666"
   d="m 717.08142,363.39145 c -1.52633,19.10728 46.95268,31.4132 34.51257,45.99612 -15.88578,18.62213 -41.35379,-27.7483 -64.94793,-34.26428 -14.79684,-4.08643 -39.27435,11.34521 -45.98645,-2.46033 -7.92105,-16.29211 18.19437,-31.89961 31.23462,-44.47451 4.19336,-4.04373 8.85645,-8.98097 14.6571,-9.51807 10.87141,-1.00662 19.39942,11.56849 30.27826,12.49139 14.95409,1.26863 36.79132,-23.12163 43.91833,-9.91406 9.60643,17.80234 -42.05571,21.97912 -43.6665,42.14374 z"
   inkscape:connector-curvature="0"
   sodipodi:nodetypes="sssssssss" />

  /&gt;
  <path
   id="blob_42"
   style="fill:#000000"
   d="m 395.67557,163.30113 c 1.34832,7.81858 11.57203,12.66999 11.93081,20.59586 0.49213,10.87158 -4.7127,23.54392 -13.74563,29.61348 -8.29985,5.57697 -22.67228,8.25243 -29.9653,1.41124 -11.40434,-10.69779 10.16211,-35.74314 -0.7905,-46.90297 -5.16388,-5.26158 -14.87591,0.67015 -22.10269,-0.78705 -8.40498,-1.69478 -18.45361,-2.6239 -24.05219,-9.11789 -6.11791,-7.09638 -8.01086,-18.31655 -5.98388,-27.46416 3.68631,-16.63605 15.64122,-33.218462 30.96286,-40.674642 9.23663,-4.494951 20.71479,2.321026 30.81372,0.441712 8.44108,-1.570806 17.1591,-14.929134 23.89844,-9.609299 13.92235,10.989897 -19.25527,39.050709 -7.84458,52.630329 2.65207,3.15617 9.76796,-2.89133 12.36353,0.31147 6.30798,7.78375 -7.18722,19.6788 -5.48459,29.55192 z"
   inkscape:connector-curvature="0"
   sodipodi:nodetypes="ssssssssssssss" />

  /&gt;
  <path
   id="blob_43"
   style="fill:#aaaaaa"
   d="m 458.03455,144.50061 c -2.72497,3.67448 -0.93036,9.43871 -3.38273,13.30046 -7.56242,11.9086 -18.74741,24.71044 -32.68612,26.88239 -6.21198,0.96796 -13.70582,-1.98384 -17.52155,-6.98043 -6.37645,-8.34977 5.29108,-25.63444 -3.54474,-31.31828 -17.22878,-11.0828 -44.52231,34.06578 -58.43612,19.03032 -8.14006,-8.79625 10.46526,-21.69598 13.74521,-33.22319 3.04944,-10.71713 -1.92997,-24.59388 5.39642,-32.989121 5.71194,-6.545267 18.42597,-1.872241 24.91354,-7.649628 10.8498,-9.662082 3.42422,-36.378345 17.51676,-39.910263 9.12614,-2.287224 17.04937,9.562055 22.19208,17.440537 8.26934,12.668413 0.35547,33.521115 11.31195,43.953105 13.3414,12.70276 51.00762,-7.02031 54.13134,11.13446 2.22149,12.91107 -25.8323,9.80669 -33.63604,20.32964 z"
   inkscape:connector-curvature="0"
   sodipodi:nodetypes="ssssssssssssss" />

  /&gt;
  <path
   id="blob_44"
   style="fill:#444444"
   d="m 510.95902,328.59347 c -4.48191,8.81481 -2.98644,22.79047 -11.83622,27.20292 -6.64084,3.31108 -14.47509,-3.28959 -21.64786,-5.19104 -7.55308,-2.00228 -15.17137,-3.86021 -22.51001,-6.54398 -16.59659,-6.06945 -41.26343,-5.38708 -48.44439,-21.53387 -3.17881,-7.14774 6.16516,-14.56683 7.28409,-22.30912 1.74923,-12.10365 -10.88003,-29.40217 -1.04694,-36.67324 8.8715,-6.56003 20.71916,13.52203 31.35803,10.59768 9.48827,-2.60807 10.29984,-18.23474 19.20648,-22.41815 16.64678,-7.81891 39.53706,-10.56444 55.16785,-0.87276 11.23416,6.96561 17.63196,22.58803 17.06745,35.79436 -0.69225,16.19445 -17.25197,27.4984 -24.59848,41.9472 z"
   inkscape:connector-curvature="0"
   sodipodi:nodetypes="ssssssssssss" />

  /&gt;
  <path
   id="blob_45"
   style="fill:#666666"
   d="m 501.88473,570.54004 c 0.59853,7.27267 -0.52571,15.26952 -4.41967,21.44098 -9.11704,14.44937 -24.66338,36.40231 -40.85559,30.95099 -14.94461,-5.0313 -2.93522,-33.21583 -12.75388,-45.55475 -5.82672,-7.32233 -17.47831,-7.42745 -24.6434,-13.44647 -13.93963,-11.70998 -37.62869,-24.86224 -34.04035,-42.71051 3.16389,-15.73705 26.29309,-25.00316 42.23569,-23.13285 13.69107,1.60617 17.0378,25.79959 30.68817,27.72116 4.79671,0.67524 8.32711,-7.44463 13.0539,-6.38549 11.08738,2.48435 15.64266,16.75864 21.30072,26.61199 4.35859,7.59038 8.71651,15.78166 9.43441,24.50495 z"
   inkscape:connector-curvature="0"
   sodipodi:nodetypes="sssssssssss" />

  /&gt;
  <path
   id="blob_46"
   style="fill:#cccccc"
   d="m 763.08935,631.99383 c -2.82972,12.57632 19.34154,28.50819 9.97413,37.36384 -17.38271,16.43304 -49.30307,-7.6865 -68.18641,-22.37061 -4.66262,-3.62576 -7.06429,-9.57644 -9.50097,-14.95685 -6.30235,-13.91615 -19.38853,-30.17231 -12.86676,-43.987 5.89065,-12.47782 24.83036,-20.19157 38.0614,-16.27551 7.99734,2.36701 6.4991,17.01755 13.94543,20.77417 19.21854,9.6956 55.02821,-22.23774 64.51142,-2.91351 8.15834,16.62449 -31.87313,24.29873 -35.93824,42.36547 z"
   inkscape:connector-curvature="0"
   sodipodi:nodetypes="sssssssss" />

  /&gt;
  <path
   id="blob_47"
   style="fill:#000000"
   d="m 100.61301,703.36529 c -4.876627,7.94324 -18.912253,-5.37822 -27.833637,-2.67907 -3.735281,1.1301 -6.730416,4.27583 -9.07727,7.3938 -3.679616,4.88864 -1.61202,14.39614 -7.202,16.88421 -4.364002,1.9424 -8.780316,-4.58461 -13.556698,-4.64465 -9.775,-0.12287 -18.232181,9.61529 -27.974319,8.80505 -9.6771072,-0.80482 -22.9013887,-4.00052 -25.960995,-13.21643 -3.159132,-9.51569 15.094324,-17.0998 13.321758,-26.96826 -1.61547734,-8.99389 -17.555775,-9.99419 -19.935722,-18.81665 -3.290413,-12.19755 0.635,-28.76391 10.73938,-36.34735 7.9269537,-5.94926 20.362825,3.10585 29.733108,-0.12341 7.502128,-2.58545 11.206257,-16.85154 18.811764,-14.5882 16.108126,4.79365 1.093746,40.86172 16.466232,47.65418 5.509324,2.43434 10.845532,-5.35952 16.600773,-7.13599 10.099566,-3.11744 25.662056,-15.12645 31.121696,-6.07593 5.6647,9.39045 -20.020016,14.67413 -20.636321,25.62354 -0.537712,9.55309 20.388341,16.08104 15.382251,24.23516 z"
   inkscape:connector-curvature="0"
   sodipodi:nodetypes="sssssssssssssssss" />

  /&gt;
  <path
   id="blob_48"
   style="fill:#444444"
   d="m 77.495346,643.52759 c -10.231028,10.00927 -28.043578,-6.08777 -41.557693,-10.80243 -4.158142,-1.45065 -7.723611,-4.7026 -12.079491,-5.35132 -21.5833513,-3.2144 -52.075162,25.51834 -64.982864,7.92389 -9.848174,-13.42402 7.094202,-35.81402 20.651575,-45.47778 6.653648,-4.74276 16.8672578,0.85381 24.404689,-2.30085 3.4842713,-1.45828 6.781541,-4.02131 8.675784,-7.28912 5.964415,-10.28937 -4.9815304,-31.46778 6.33963,-35.11151 20.205679,-6.50323 35.25282,25.84866 45.742599,44.302 9.159199,16.11262 26.054051,41.146 12.805771,54.10712 z"
   inkscape:connector-curvature="0"
   sodipodi:nodetypes="ssssssssss" />

  /&gt;
  <path
   id="blob_49"
   style="fill:#cccccc"
   d="m 531.90729,641.80963 c -9.55066,10.57883 -28.37618,-2.92268 -42.61975,-3.4201 -5.90638,-0.20627 -11.86155,-0.52575 -17.72901,0.18188 -7.32583,0.88352 -14.2325,4.13036 -21.55487,5.04211 -8.66298,1.07869 -19.17848,5.67767 -26.18542,0.47059 -6.03733,-4.48654 -7.60961,-14.34699 -6.11991,-21.71985 3.27652,-16.2162 23.56512,-23.99476 30.95197,-38.79798 6.01676,-12.05755 -1.51209,-32.29613 10.09238,-39.14611 6.4645,-3.81593 15.17063,2.11012 21.80902,5.6148 7.48109,3.94958 13.44557,10.42235 19.0881,16.72534 9.74003,10.88011 19.43521,22.4564 25.06259,35.93146 5.10935,12.2346 16.0897,29.27656 7.2049,39.11786 z"
   inkscape:connector-curvature="0"
   sodipodi:nodetypes="ssssssssssss" />

  /&gt;
  <path
   id="blob_50"
   style="fill:#aaaaaa"
   d="m 360.6413,718.51471 c -5.02166,18.041 -20.03263,35.13786 -37.53309,41.80334 -12.56558,4.78592 -27.91016,1.21712 -40.08862,-4.48236 -9.83789,-4.6041 -19.68958,-12.38412 -23.5274,-22.54547 -5.96111,-15.78315 2.15103,-33.69585 4.26962,-50.43365 1.81832,-14.36552 -6.36487,-37.86469 7.23605,-42.8335 16.82,-6.14483 26.17655,24.6634 40.9878,34.72809 3.2153,2.1849 6.67729,4.05031 10.28558,5.49676 10.53754,4.22419 25.1211,0.78678 32.80853,9.14063 6.69301,7.27321 8.21198,19.60402 5.56153,29.12616 z"
   inkscape:connector-curvature="0"
   sodipodi:nodetypes="ssssssssss" />

  /&gt;
  <path
   id="blob_51"
   style="fill:#888888"
   d="m 438.02625,419.87353 c 0.39307,11.2589 23.1814,17.80387 18.71148,28.1449 -3.30552,7.64723 -16.35983,5.09153 -24.64099,4.18103 -14.04344,-1.54404 -26.93184,-9.07831 -39.24823,-15.99994 -2.74758,-1.5441 -5.12142,-3.67812 -7.60144,-5.6231 -3.27244,-2.56645 -5.5786,-6.8998 -9.59659,-7.97275 -11.58093,-3.09253 -28.18704,15.67955 -35.43362,6.13131 -4.81337,-6.34218 11.94747,-13.79265 10.25448,-21.57247 -2.0902,-9.60521 -25.81972,-9.68262 -22.58331,-18.96457 4.61089,-13.22391 33.2862,9.80875 41.99823,-1.15631 7.5895,-9.55223 -18.36254,-30.74743 -7.28873,-35.86759 11.68347,-5.40204 11.0155,31.35928 23.84937,30.37067 19.14687,-1.47492 10.00986,-56.31648 28.22168,-50.22489 17.25191,5.77052 -21.2106,42.39894 -7.27139,54.08765 11.71445,9.82315 31.74273,-23.47259 43.69436,-13.93942 7.8149,6.23352 0.42675,20.33439 -2.53485,29.88208 -2.10421,6.78362 -10.77827,11.42525 -10.53045,18.5234 z"
   inkscape:connector-curvature="0"
   sodipodi:nodetypes="sssssssssssssssss" />

  /&gt;
  <path
   id="blob_52"
   style="fill:#aaaaaa"
   d="m 152.65742,339.27191 c -2.66592,8.9801 -1.57647,21.50901 -9.5465,26.43118 -8.42632,5.20397 -19.66002,-2.4178 -29.50569,-3.4888 -8.60765,-0.93633 -18.057654,1.21096 -25.848081,-2.56762 -9.986923,-4.84395 -21.531069,-12.99589 -23.099373,-23.98419 -1.160195,-8.1289 11.669589,-13.60688 11.442474,-21.81501 -0.246034,-8.8919 -13.339515,-14.02205 -13.68351,-22.9107 -0.441256,-11.40182 5.408338,-24.84681 15.228569,-30.65708 8.989129,-5.31853 22.711171,-4.64118 31.307401,1.29145 13.76017,9.49647 6.92331,35.35086 19.71045,46.12185 7.79512,6.56606 24.39085,-1.60651 29.74896,7.06342 4.41285,7.1404 -3.36583,16.46865 -5.7547,24.5155 z"
   inkscape:connector-curvature="0"
   sodipodi:nodetypes="ssssssssssss" />

  /&gt;
  <path
   id="blob_53"
   style="fill:#666666"
   d="m 69.83844,531.73987 c -7.099926,8.56964 -21.764704,9.26996 -32.651772,6.96356 -5.625757,-1.1918 -8.31713,-9.04298 -13.963892,-10.13092 -15.5528091,-2.99651 -33.290824,20.9673 -46.074735,11.61633 -9.226816,-6.74908 -1.103063,-22.84219 -2.082497,-34.23187 -0.336553,-3.91373 -1.410174,-7.78554 -1.3031,-11.71225 0.592197,-21.71756 -7.859598,-53.03822 10.726455,-64.28818 14.80895618,-8.96371 38.937329,2.34999 49.346127,16.18149 6.49394,8.62933 -7.255106,25.62971 1.176685,32.37814 9.586582,7.67269 26.856804,-14.71385 36.211296,-6.75985 15.236512,12.9554 11.375015,44.58268 -1.384567,59.98355 z"
   inkscape:connector-curvature="0"
   sodipodi:nodetypes="sssssssssss" />

  /&gt;
  <path
   id="blob_54"
   style="fill:#888888"
   d="M 93.942734,80.218216 C 90.375327,89.054897 80.835581,94.480712 72.541794,99.173943 66.289577,102.7119 58.72515,103.1603 51.985069,105.646 38.597763,110.58314 25.901046,127.50607 12.58517,122.37939 2.0322593,118.31646 5.5632356,100.28241 -1.684561,91.602509 c -3.5146912,-4.209166 -11.913133,-4.20761 -13.450937,-9.471192 -2.700495,-9.243233 14.25451739,-17.687285 10.951403,-26.732696 -2.2376476,-6.127684 -17.56712,-2.547728 -17.343111,-9.067345 0.274805,-7.997988 16.7048911,-3.62685 21.989097,-9.636883 5.5129342,-6.270178 4.2608104,-16.164328 7.034837,-24.03912 3.032769,-8.6092985 1.422249,-24.162792 10.479089,-25.299171 13.820376,-1.734069 18.387864,21.2166564 25.032648,33.45825 2.599468,4.788964 1.160798,12.240451 5.640186,15.343111 11.455472,7.934664 31.538581,-9.714896 41.804253,-0.291378 10.924746,10.028519 9.041343,30.6007 3.48983,44.352131 z"
   inkscape:connector-curvature="0"
   sodipodi:nodetypes="sssssssssssssss" />

  /&gt;
  <path
   id="blob_55"
   style="fill:#000000"
   d="m 147.53937,484.58051 c -2.61763,6.48382 12.83883,13.85068 8.3748,19.23254 -6.34055,7.6442 -20.21176,-11.18073 -29.04516,-6.64121 -5.40901,2.77972 -2.941,12.34259 -7.04737,16.82834 -5.46142,5.96601 -14.53211,15.46967 -21.468277,11.30915 -9.404939,-5.64137 7.818947,-25.39414 -0.176437,-32.90091 -12.028972,-11.29387 -44.69214,18.66106 -49.417542,2.85226 -4.420716,-14.78947 32.920749,-9.48175 40.111878,-23.14041 3.087115,-5.86359 -6.615125,-15.53996 -1.555222,-19.81891 5.149935,-4.35508 14.57583,9.37874 19.62849,4.91116 7.86114,-6.95085 -6.69401,-21.1457 -3.84404,-31.24469 3.34098,-11.83887 10.80402,-30.55219 22.98948,-28.86822 15.89466,2.19656 7.35243,32.98372 18.65089,44.37714 5.90765,5.9573 17.21069,3.99136 23.12114,9.94589 5.36745,5.40748 11.7701,14.01555 8.8759,21.06354 -4.00175,9.74509 -25.25475,2.32563 -29.19853,12.09433 z"
   inkscape:connector-curvature="0"
   sodipodi:nodetypes="ssssssssssssssss" />

  /&gt;
  <path
   id="blob_56"
   style="fill:#888888"
   d="m 178.25943,726.22296 c 1.58808,12.35542 -10.71308,23.09062 -19.60245,31.81744 -6.08975,5.9784 -13.57157,11.97743 -22.04094,13.02436 -19.88168,2.45764 -49.084901,1.06499 -57.628293,-17.05493 -6.838017,-14.50295 18.215675,-28.24675 18.81604,-44.26966 0.717642,-19.15286 -22.811584,-35.78438 -18.468567,-54.45215 2.503159,-10.75942 12.871457,-20.13372 23.40467,-23.46276 24.45107,-7.72781 66.24711,-10.46356 75.76261,13.34881 7.32567,18.33236 -36.87544,27.97428 -35.18203,47.64337 1.38213,16.05362 32.88481,17.42399 34.93896,33.40552 z"
   inkscape:connector-curvature="0"
   sodipodi:nodetypes="ssssssssss" />

  /&gt;
  <path
   id="blob_57"
   style="fill:#aaaaaa"
   d="m 740.22369,275.69348 c -11.19876,13.36739 -36.32782,-5.06916 -52.27783,1.98041 -13.10414,5.79176 -16.27216,34.35794 -30.11542,30.66641 -14.24943,-3.79984 -12.85576,-28.15987 -11.1654,-42.81006 0.90528,-7.84597 14.08815,-13.67523 11.04376,-20.96292 -5.2073,-12.46528 -38.15969,1.73112 -38.78284,-11.76373 -1.00466,-21.75696 39.45032,-19.10481 60.51337,-24.64762 7.9767,-2.09909 16.31779,-2.53657 24.54285,-3.15493 8.75257,-0.65802 19.64138,-6.27442 26.32532,-0.58534 18.26702,15.54812 25.32106,52.88979 9.91619,71.27778 z"
   inkscape:connector-curvature="0"
   sodipodi:nodetypes="ssssssssss" />

  /&gt;
  <path
   id="blob_58"
   style="fill:#666666"
   d="m 729.03809,525.22339 c -3.25381,12.08145 -16.11784,23.15449 -28.57337,24.34137 -7.81115,0.74432 -13.97481,-7.21787 -20.47955,-11.60608 -10.00783,-6.75145 -25.38083,-10.82959 -28.3562,-22.52942 -2.53726,-9.97706 8.1289,-18.9173 12.06512,-28.42969 2.96289,-7.16019 3.58371,-15.7354 8.69489,-21.55975 13.00744,-14.8224 35.33264,-40.31725 51.52881,-29.06641 14.21798,9.87668 -9.69662,34.05605 -8.12354,51.29627 1.20613,13.21862 16.6957,24.73687 13.24384,37.55371 z"
   inkscape:connector-curvature="0"
   sodipodi:nodetypes="sssssssss" />

  /&gt;
  <path
   id="blob_59"
   style="fill:#aaaaaa"
   d="m 29.482615,101.78311 c -1.13047,17.08329 22.66478,36.28463 12.256471,49.87816 -8.173134,10.67433 -29.794968,9.28697 -40.321441,0.92427 -11.537778,-9.16613 1.4538722,-32.90145 -9.007227,-43.27949 -13.835522,-13.725663 -54.853884,7.87451 -57.333239,-11.455998 -2.76018,-21.519984 46.361108,-10.494923 58.542446,-28.448845 8.5645683,-12.62321 -9.868081,-38.068083 3.375191,-45.638618 14.361142,-8.209567 36.03667,7.747232 44.503971,21.957939 4.793352,8.044703 0.850223,18.905847 -1.059967,28.073433 -2.043709,9.808388 -10.294652,17.991973 -10.956205,27.989149 z"
   inkscape:connector-curvature="0"
   sodipodi:nodetypes="ssssssssss" />

  /&gt;
  <path
   id="blob_60"
   style="fill:#aaaaaa"
   d="m 366.40558,187.91542 c -1.62082,8.85844 2.23563,19.63968 -3.18964,26.82755 -6.92501,9.17485 -20.32161,13.16543 -31.81573,13.30273 -4.55933,0.0545 -9.96646,-1.35672 -12.74268,-4.97377 -12.9912,-16.92583 -9.44807,-42.41578 -7.06525,-63.61902 1.12092,-9.97427 0.10883,-26.16192 9.88324,-28.44299 12.88403,-3.00678 15.55509,24.22046 28.27701,27.85248 8.3094,2.37227 19.24705,-11.87612 25.29001,-5.69904 8.34718,8.53245 -6.48863,23.01056 -8.63696,34.75206 z"
   inkscape:connector-curvature="0"
   sodipodi:nodetypes="sssssssss" />

  /&gt;
  <path
   id="blob_61"
   style="fill:#888888"
   d="m 142.91179,407.47476 c -6.03947,7.73838 -15.18242,15.60783 -24.99852,15.56577 -6.97813,-0.0299 -10.74779,-10.38037 -17.6756,-11.21738 -7.989317,-0.96526 -14.926886,8.94873 -22.87828,7.70926 -8.371539,-1.30496 -18.169619,-6.90954 -20.473938,-15.06281 -2.024739,-7.16403 5.86823,-13.69316 8.400627,-20.69387 1.503929,-4.15756 1.050323,-9.36906 4.027947,-12.63721 3.077169,-3.37741 9.841874,-1.7272 12.616875,-5.35696 8.733752,-11.42396 -6.104244,-34.75772 5.856391,-42.74073 7.551192,-5.03996 20.509808,-0.024 26.337628,6.93726 7.95778,9.50541 -6.58481,29.20752 3.00041,37.069 10.46267,8.58113 31.73139,-15.1621 40.32097,-4.70636 10.03305,12.21281 -4.81008,32.67409 -14.53451,45.13403 z"
   inkscape:connector-curvature="0"
   sodipodi:nodetypes="sssssssssssss" />

  /&gt;
  <path
   id="blob_62"
   style="fill:#444444"
   d="m 281.92642,501.784 c -4.06828,8.71999 -10.1331,18.51892 -19.28992,21.47558 -7.13819,2.30487 -14.79444,-2.66159 -21.98841,-4.78595 -5.76438,-1.7022 -11.47026,-3.72332 -16.87577,-6.35125 -21.0852,-10.25076 -55.49994,-13.48635 -60.14259,-36.46698 -4.10623,-20.3254 20.12821,-37.64916 36.50081,-50.37397 6.96999,-5.41708 16.00738,-7.81418 24.61684,-9.76428 21.82036,-4.94247 51.26247,-20.48983 66.96478,-4.55264 12.38494,12.5702 -2.40276,35.22234 -4.37461,52.75827 -1.43193,12.73439 0.007,26.44826 -5.41113,38.06122 z"
   inkscape:connector-curvature="0"
   sodipodi:nodetypes="ssssssssss" />

  /&gt;
  <path
   id="blob_63"
   style="fill:#cccccc"
   d="m 553.56262,114.4221 c -4.77646,4.71578 -2.60531,13.25057 -5.11401,19.47629 -7.46479,18.52502 -10.07378,58.01399 -29.21509,52.31227 -19.65714,-5.85536 16.46665,-44.88176 4.28442,-61.38273 -3.0005,-4.06422 -10.24836,-1.1687 -14.75912,-3.44335 -15.66671,-7.90027 -39.40677,-16.57513 -40.0925,-34.107671 -0.71863,-18.373816 24.66971,-27.515374 39.09616,-38.916733 8.27121,-6.536812 17.36591,-21.176822 26.88822,-16.652603 18.19852,8.646448 -6.63122,45.867718 7.78753,59.940628 17.29486,16.880039 70.42338,-16.515673 72.10254,7.593002 1.45539,20.895857 -46.07238,0.464471 -60.97815,15.180897 z"
   inkscape:connector-curvature="0"
   sodipodi:nodetypes="sssssssssss" />

  /&gt;
  <path
   id="blob_64"
   style="fill:#444444"
   d="m 224.33778,641.56915 c -1.08349,4.44576 -8.56606,3.2263 -12.79161,4.9823 -9.37447,3.89573 -19.03395,7.28908 -27.85417,12.31513 -16.0351,9.1373 -28.70776,40.67963 -45.07526,32.15204 -9.42257,-4.90924 -3.9284,-22.12591 0.30034,-31.87287 4.99734,-11.51851 26.62271,-13.45219 27.2631,-25.9917 0.61765,-12.09422 -17.50706,-17.15402 -23.60431,-27.61706 -5.4805,-9.40468 -17.0268,-21.54285 -11.1375,-30.69708 10.67917,-16.59954 40.24149,-10.7517 59.02756,-4.69587 12.71351,4.09831 27.9953,12.8026 30.57039,25.90979 1.90049,9.67353 -14.83819,16.45005 -13.65055,26.2367 1.03089,8.49491 18.97822,10.96474 16.95201,19.27862 z"
   inkscape:connector-curvature="0"
   sodipodi:nodetypes="ssssssssssss" />

  /&gt;
  <path
   id="blob_65"
   style="fill:#666666"
   d="m 514.94922,271.56754 c -9.9466,8.39953 -28.87166,-9.80635 -39.02115,-1.65314 -8.70188,6.99032 4.72607,29.3421 -5.82822,32.97449 -12.90289,4.44068 -19.26885,-19.53131 -30.42523,-27.38877 -9.53484,-6.71541 -21.76899,-9.21806 -30.79925,-16.59805 -7.71707,-6.30678 -18.03048,-13.06476 -19.14106,-22.96907 -1.17196,-10.45177 6.93645,-20.62968 14.32917,-28.11037 6.63564,-6.71461 16.84071,-8.54744 25.07773,-13.1593 15.24948,-8.5381 27.79805,-29.72905 45.03585,-26.84741 7.92593,1.32497 10.93455,11.84169 15.56653,18.40832 11.30271,16.02353 25.66824,31.63702 29.57153,50.8534 2.30677,11.35646 4.48789,27.0132 -4.3659,34.4899 z"
   inkscape:connector-curvature="0"
   sodipodi:nodetypes="ssssssssssss" />

  /&gt;
  <path
   id="blob_66"
   style="fill:#cccccc"
   d="m 667.01025,226.51318 c 1.50761,10.29594 -2.24457,26.66509 -12.4649,28.62059 -14.61171,2.79573 -16.8278,-30.39431 -31.66711,-31.44929 -11.84764,-0.8423 -17.26264,17.67754 -28.58082,21.27959 -12.17268,3.87399 -33.33964,10.85623 -38.31201,-0.91057 -7.1481,-16.91557 36.88677,-22.05202 37.44776,-40.40732 0.12907,-4.22319 -6.33444,-5.93667 -8.03217,-9.80574 -6.10356,-13.90978 -19.5245,-37.48853 -6.3905,-45.11963 15.04926,-8.7439 23.99193,30.01848 41.28784,31.96463 7.17546,0.80739 13.65947,-13.15804 19.64752,-9.12289 5.98958,4.03617 -3.39171,14.79829 -1.07971,21.64083 4.65306,13.77105 26.03811,18.92727 28.1441,33.3098 z"
   inkscape:connector-curvature="0"
   sodipodi:nodetypes="ssssssssssss" />

  /&gt;
  <path
   id="blob_67"
   style="fill:#888888"
   d="m 237.45651,696.76569 c -3.73337,9.76102 9.65515,22.8635 3.32065,31.17553 -3.82169,5.01477 -12.87533,0.56324 -18.66647,3.0564 -7.4833,3.22166 -11.3898,16.01835 -19.44654,14.80682 -9.94376,-1.49528 -8.52431,-20.12345 -17.5652,-24.52533 -16.04423,-7.8117 -45.9576,18.4848 -53.48503,2.30524 -7.38104,-15.86491 23.36571,-26.06301 35.51019,-38.66009 3.59547,-3.72946 7.26417,-7.39226 11.05344,-10.92463 1.93243,-1.80141 5.2597,-2.68325 5.95265,-5.2326 4.34462,-15.98368 -29.37512,-38.0209 -15.57812,-47.18585 13.09764,-8.70039 23.12921,21.36555 35.55774,30.99762 4.09427,3.17305 7.78472,7.54376 12.81117,8.79522 7.82382,1.94794 16.04125,-3.81552 24.0321,-2.74182 9.5561,1.28402 25.16009,1.25694 26.85465,10.74884 2.39481,13.41434 -25.48334,14.65739 -30.35123,27.38465 z"
   inkscape:connector-curvature="0"
   sodipodi:nodetypes="sssssssssssssss" />

  /&gt;
  <path
   id="blob_68"
   style="fill:#666666"
   d="m 192.04036,131.09375 c -2.54463,6.57037 -7.18199,12.49869 -12.66576,16.92285 -5.94398,4.79546 -14.02534,6.07452 -20.83146,9.53922 -7.64052,3.88944 -13.99293,14.19413 -22.41845,12.60795 -12.70605,-2.39203 -12.12343,-26.54059 -24.57978,-30.00543 -13.026252,-3.62336 -27.754626,22.16545 -38.215015,13.59853 -7.53106,-6.16784 5.896936,-19.322 4.176224,-28.90314 C 75.46119,113.46731 55.496501,104.6068 60.900925,94.378189 c 6.318711,-11.959027 30.310141,4.994707 40.375415,-4.040481 4.61498,-4.142675 0.95729,-12.711045 3.83279,-18.205704 2.93841,-5.614878 6.79545,-14.824154 13.0531,-13.822685 11.66372,1.866652 3.28156,31.389067 15.07404,32.070465 17.90209,1.034426 11.4171,-51.65903 28.33917,-45.7262 15.84688,5.555873 -17.25747,37.548148 -6.01047,50.017963 8.94593,9.918563 31.00542,-10.478396 40.06528,-0.663796 8.4242,9.125989 0.89551,25.504459 -3.58989,37.085999 z"
   inkscape:connector-curvature="0"
   sodipodi:nodetypes="ssssssssssssssss" />

  /&gt;
  <path
   id="blob_69"
   style="fill:#ffffff"
   d="m 400.6589,557.14935 c -0.59856,17.46449 -25.47245,26.11195 -42.23178,31.06085 -13.28644,3.9234 -31.13502,6.71997 -41.48636,-2.48724 -6.56481,-5.83921 0.16372,-18.58714 -4.63436,-25.94726 -7.66826,-11.7629 -31.52015,-9.89535 -34.95365,-23.51075 -4.56538,-18.10386 12.73196,-36.5225 26.09464,-49.5621 6.13104,-5.98281 14.72345,-13.52188 23.02615,-11.41266 13.02529,3.30896 15.01339,22.3153 23.19824,32.97437 5.17902,6.74459 10.37348,13.53635 16.3682,19.56753 10.66014,10.72497 35.13689,14.20451 34.61892,29.31726 z"
   inkscape:connector-curvature="0"
   sodipodi:nodetypes="ssssssssss" />

  /&gt;
  <path
   id="blob_70"
   style="fill:#444444"
   d="m 336.60156,271.44391 c 1.45778,9.8848 11.18079,18.60709 9.44766,28.44736 -1.55564,8.83256 -7.84503,19.63945 -16.69375,21.1004 -6.22328,1.02748 -10.42158,-7.13097 -15.88776,-10.27832 -6.92532,-3.98751 -14.7545,-6.38427 -21.36737,-10.87094 -4.36344,-2.9605 -6.96328,-8.53376 -11.87567,-10.45017 -12.63114,-4.92763 -37.40728,12.2549 -40.66476,-0.90625 -3.96763,-16.0303 40.07592,-7.88222 43.29678,-24.0791 2.02584,-10.1874 -23.28761,-14.79336 -19.3664,-24.41163 5.19516,-12.7431 28.15487,-0.13749 40.95737,-5.18447 3.41496,-1.34624 5.92447,-4.33651 8.92978,-6.44421 13.67394,-9.58988 25.26477,-32.5018 41.40637,-28.21335 9.17838,2.43848 13.98604,16.23652 12.47748,25.61271 -2.2955,14.26733 -24.62429,17.74193 -30.2529,31.0515 -1.89974,4.49219 -1.11843,9.80129 -0.40683,14.62647 z"
   inkscape:connector-curvature="0"
   sodipodi:nodetypes="sssssssssssssss" />

  /&gt;
  <path
   id="blob_71"
   style="fill:#aaaaaa"
   d="m 469.30316,296.51965 c -4.21358,7.88246 -17.32414,4.63106 -26.194,5.73246 -8.34476,1.03619 -17.85467,4.86599 -25.21393,0.79782 -11.20067,-6.1917 -13.96408,-21.54829 -19.38278,-33.14267 -3.20499,-6.85772 -6.35,-13.91829 -7.68433,-21.36945 -2.7601,-15.41301 -13.66027,-38.59429 -0.43215,-46.97259 9.87385,-6.25381 20.47419,11.57506 31.56027,15.27667 5.62583,1.87844 12.90706,-0.37517 17.46066,3.42526 20.95942,17.49272 42.75616,52.17641 29.88626,76.2525 z"
   inkscape:connector-curvature="0"
   sodipodi:nodetypes="sssssssss" />

  /&gt;
  <path
   id="blob_72"
   style="fill:#666666"
   d="m 763.05499,105.07094 c -0.32499,6.21525 1.6638,14.1517 -2.83233,18.45516 -5.71433,5.46945 -16.099,0.0308 -23.59052,2.56965 -10.74974,3.64301 -17.79161,18.38939 -29.11792,17.6523 -10.15061,-0.66058 -18.87767,-10.1807 -23.82495,-19.06865 -2.85071,-5.1214 1.15156,-12.58418 -2.10504,-17.45755 -3.62374,-5.42279 -14.89512,-3.44106 -17.05145,-9.596407 -3.7289,-10.644294 7.66472,-21.268155 12.68432,-31.368119 4.57482,-9.205005 6.95063,-21.26051 15.80725,-26.47792 6.11882,-3.604576 14.30169,0.557464 21.29383,-0.684639 14.00755,-2.488341 30.79955,-23.792079 40.52093,-13.404671 12.45097,13.304003 -29.6824,34.872295 -20.56494,50.648705 4.645,8.037493 21.32356,-3.045549 27.58838,3.804954 5.61384,6.138669 1.62682,16.61997 1.19244,24.927187 z"
   inkscape:connector-curvature="0"
   sodipodi:nodetypes="ssssssssssssss" />

  /&gt;
  <path
   id="blob_73"
   style="fill:#444444"
   d="m 663.37512,650.36054 c -10.36185,7.70464 -24.39549,-12.15059 -37.22723,-10.70978 -2.84646,0.31961 -5.06363,2.68401 -7.52558,4.14801 -15.07789,8.96609 -30.14156,38.68061 -44.32946,28.36377 -15.27018,-11.10383 2.33819,-40.21782 14.33392,-54.79779 3.8477,-4.67662 12.76853,-3.02294 16.36163,-7.89789 6.88738,-9.34447 -5.00106,-28.85831 5.17841,-34.43805 8.9482,-4.90483 19.68052,6.4937 27.9682,12.44702 10.26047,7.37044 21.13838,16.09675 25.65802,27.89392 4.17302,10.89242 8.9425,28.03078 -0.41791,34.99079 z"
   inkscape:connector-curvature="0"
   sodipodi:nodetypes="ssssssssss" />

  /&gt;
  <path
   id="blob_74"
   style="fill:#eeeeee"
   d="m 689.25702,430.54633 c -3.00067,13.86892 7.43186,34.43456 -4.34717,42.34692 -10.05513,6.75436 -25.58151,-2.45731 -34.86835,-10.23431 -5.527,-4.62844 -5.50949,-13.45142 -9.64001,-19.35981 -3.82456,-5.47073 -8.70214,-10.19507 -13.77014,-14.53921 -9.3497,-8.0143 -23.32174,-10.92098 -30.39173,-21.00369 -5.38792,-7.68388 -11.35681,-18.83742 -7.15594,-27.22934 7.33168,-14.64624 29.15036,-18.40094 45.52899,-18.4798 11.20475,-0.054 24.29953,3.5665 31.26703,12.34164 6.28574,7.91651 -2.74347,22.896 4.45068,29.9971 6.34517,6.26311 21.79788,-3.99036 26.50598,3.58072 4.19256,6.74204 -5.90045,14.82002 -7.57934,22.57978 z"
   inkscape:connector-curvature="0"
   sodipodi:nodetypes="ssssssssssss" />

  /&gt;
  <path
   id="blob_75"
   style="fill:#444444"
   d="m 94.438194,265.50806 c -5.112131,8.11317 -17.230616,10.60807 -26.818054,10.41195 -6.666995,-0.13637 -11.743203,-8.98962 -18.337288,-7.99691 -5.124643,0.77148 -7.293785,7.55729 -11.789554,10.13513 -7.457262,4.27593 -17.848749,13.96556 -24.387282,8.38507 -6.6198825,-5.64993 8.660046,-18.07096 4.504469,-25.7179 -3.876568,-7.13351 -18.8848525,-2.21545 -22.416271,-9.52598 -2.2479606,-4.6536 3.8208305,-9.78747 4.119865,-14.94692 0.31051059,-5.35745 -2.4432299,-10.54442 -2.456253,-15.91084 -0.024717,-10.18504 -5.2151726,-27.21037 4.515152,-30.21977 16.127199,-4.98783 18.442167,31.76892 34.453709,37.11639 2.839844,0.94844 6.263778,-0.0647 8.840305,-1.58974 11.831402,-7.003 12.198502,-32.76305 25.929917,-32.07579 12.628349,0.63206 16.710322,19.76225 20.782241,31.73281 4.328074,12.72359 10.22368,28.83192 3.059044,40.2025 z"
   inkscape:connector-curvature="0"
   sodipodi:nodetypes="sssssssssssssss" />

  /&gt;
  <path
   id="blob_76"
   style="fill:#666666"
   d="m 264.4364,333.33066 c -7.13936,10.16615 -24.59286,-4.4371 -37.01503,-4.33325 -5.7799,0.0483 -12.46891,-1.03578 -17.18658,2.30386 -9.75457,6.90525 -4.55817,34.14599 -16.30283,31.9331 -12.84346,-2.41991 3.89962,-28.52536 -3.89755,-39.01416 -3.91183,-5.26221 -16.19517,-1.26311 -18.17974,-7.51251 -1.61811,-5.09546 8.76037,-8.21208 8.57319,-13.55502 -0.43123,-12.30913 -19.67564,-17.65314 -21.88797,-29.7695 -2.3095,-12.64848 0.17582,-29.33994 10.39225,-37.14649 8.30202,-6.34371 21.18558,-2.66138 31.34404,-0.21763 6.21558,1.49523 13.19588,3.71748 17.01938,8.84094 9.69234,12.98767 -1.77332,35.81812 9.20667,47.73705 4.79821,5.20852 15.0007,1.20863 20.4615,5.71765 10.05863,8.30547 24.96939,24.34094 17.47267,35.01596 z"
   inkscape:connector-curvature="0"
   sodipodi:nodetypes="ssssssssssssss" />

  /&gt;
  <path
   id="blob_77"
   style="fill:#ffffff"
   d="m 377.96817,504.35471 c -3.49203,9.81735 1.35222,24.93682 -7.56271,30.33114 -11.54473,6.98558 -27.85012,-2.47143 -39.3386,-9.54913 -6.82768,-4.20633 -9.64754,-12.93683 -15.58368,-18.32874 -7.20203,-6.54176 -16.73359,-10.15945 -23.94747,-16.68814 -7.05519,-6.38506 -18.33099,-12.16852 -18.56977,-21.68103 -0.38234,-15.23184 13.22988,-32.25176 27.95551,-36.1647 14.88831,-3.95618 27.57173,14.73512 42.68655,17.71094 7.19294,1.41615 14.74009,-1.16748 21.99283,-0.099 11.44356,1.68586 28.49337,-0.41775 33.18158,10.15664 6.61419,14.91852 -15.34525,28.93672 -20.81424,44.31202 z"
   inkscape:connector-curvature="0"
   sodipodi:nodetypes="sssssssssss" />

  /&gt;
  <path
   id="blob_78"
   style="fill:#888888"
   d="m 549.70398,126.27304 c -13.26304,15.49409 -40.45934,-15.29763 -60.2803,-10.49094 -3.59094,0.87083 -5.14278,6.762 -8.83713,6.69206 -14.30919,-0.27089 -27.70752,-13.99064 -33.2229,-27.196954 -3.46362,-8.293459 -1.87605,-19.005511 2.51941,-26.845031 5.88812,-10.501767 18.1146,-16.328775 28.92022,-21.638726 10.85078,-5.332139 23.87546,-14.575163 34.94532,-9.714157 11.37784,4.996252 12.11878,21.754066 16.95379,33.201363 7.66878,18.156468 31.8186,41.019355 19.00159,55.992385 z"
   inkscape:connector-curvature="0"
   sodipodi:nodetypes="sssssssss" />

  /&gt;
  <path
   id="blob_79"
   style="fill:#000000"
   d="m 717.60156,582.99841 c 2.65592,15.94102 31.62163,30.75235 21.57996,43.41468 -14.03499,17.69781 -51.54987,1.85292 -65.95532,-15.54468 -8.12524,-9.81293 0.72725,-25.67228 -1.6753,-38.1839 -1.82194,-9.48804 -13.15555,-18.40595 -9.5451,-27.36737 2.12759,-5.28086 11.25414,-3.65229 15.23401,-7.72351 11.77801,-12.04839 4.97912,-45.61248 21.828,-45.59064 18.5527,0.024 21.01503,31.93683 23.90509,50.26306 2.13334,13.52782 -7.62202,27.22357 -5.37134,40.73236 z"
   inkscape:connector-curvature="0"
   sodipodi:nodetypes="sssssssss" />

  /&gt;
  <path
   id="blob_80"
   style="fill:#222222"
   d="m 608.17779,368.39105 c -4.2824,6.89918 -19.695,-5.15783 -24.31304,1.52133 -7.65867,11.07688 22.28232,30.06394 11.87841,38.61444 -10.62197,8.72973 -26.75914,-9.66161 -36.32782,-19.53454 -4.5296,-4.67363 -4.67735,-12.36485 -8.70459,-17.47772 -1.35347,-1.71834 -3.00059,-3.39204 -5.0252,-4.22 -4.41713,-1.80639 -9.75678,0.42748 -14.27326,-1.11377 -17.88192,-6.10222 -46.07334,-12.20994 -47.41833,-31.05646 -0.70483,-9.87627 13.1946,-15.71626 22.28598,-19.63852 6.37154,-2.74885 13.79433,-2.16669 20.72909,-1.91809 5.6562,0.20276 11.09375,2.91145 16.75183,2.77106 8.22795,-0.20416 16.66693,-8.702 24.13056,-5.23285 4.65758,2.16487 2.95884,10.73648 7.21142,13.61663 6.93254,4.69522 19.67339,-3.80096 24.97535,2.67936 3.76478,4.6015 -2.54984,11.88342 -1.64728,17.75988 1.27475,8.29977 14.17532,16.09482 9.74688,23.22925 z"
   inkscape:connector-curvature="0"
   sodipodi:nodetypes="ssssssssssssssss" />

  /&gt;
  <path
   id="blob_81"
   style="fill:#888888"
   d="m 147.77278,194.673 c -3.49264,1.53206 -5.83592,5.01811 -9.22322,6.77079 -2.88365,1.49207 -7.05739,0.67685 -9.2406,3.08003 -7.79161,8.57665 3.37368,30.75873 -7.78568,33.87915 -5.76835,1.61297 -9.81218,-7.54455 -12.5243,-12.88496 -5.31682,-10.46928 0.81394,-25.1012 -5.91133,-34.72643 -5.654846,-8.09325 -24.497247,-4.91063 -25.708835,-14.70911 -1.293424,-10.4603 16.226502,-13.67094 22.793905,-21.91473 9.54085,-11.97623 9.00053,-34.87234 23.63031,-39.39199 9.75963,-3.01509 18.08547,9.77405 27.83921,12.80811 8.37277,2.60449 19.03196,-0.92796 25.91754,4.50116 14.91754,11.76213 31.43674,35.5195 22.5812,52.32604 -8.29206,15.73712 -36.07844,3.11641 -52.3682,10.26194 z"
   inkscape:connector-curvature="0"
   sodipodi:nodetypes="sssssssssssss" />

  /&gt;
  <path
   id="blob_82"
   style="fill:#000000"
   d="m 639.98639,503.90842 c 1.65114,14.40034 19.12373,27.10006 14.73065,40.91299 -3.12134,9.81427 -15.07936,16.74663 -25.33539,17.6828 -21.03051,1.91967 -40.86895,-13.44406 -57.65777,-26.25433 -13.50043,-10.30114 -27.53428,-22.93731 -32.60553,-39.14402 -2.83585,-9.0628 -4.955,-22.5008 2.50378,-28.37814 15.69564,-12.36777 46.78335,24.42688 59.29267,8.84381 8.38357,-10.44356 -20.78516,-25.75426 -14.37964,-37.51529 8.78115,-16.12288 38.44225,-21.24645 53.8977,-11.33761 7.01943,4.50031 5.09655,16.06729 5.53815,24.39377 0.90293,17.02519 -7.92674,33.85788 -5.98462,50.79602 z"
   inkscape:connector-curvature="0"
   sodipodi:nodetypes="sssssssssss" />

  /&gt;
  <path
   id="blob_83"
   style="fill:#666666"
   d="m 418.75296,663.56952 c -2.61569,5.35004 -12.12914,1.22643 -17.42236,3.95526 -3.34355,1.72371 -4.86174,6.29129 -8.41877,7.51526 -4.47836,1.541 -9.49504,-0.22463 -14.17736,-0.93622 -3.50521,-0.5327 -7.08574,-1.08199 -10.34229,-2.48382 -10.5009,-4.52029 -20.75099,-10.53951 -28.73947,-18.7179 -4.63031,-4.74038 -8.51063,-10.57348 -10.45502,-16.90833 -2.959,-9.64046 -8.06792,-22.78262 -1.26489,-30.22662 11.46748,-12.54791 34.47829,1.79889 50.93689,-2.45172 17.03078,-4.39838 30.04606,-26.48848 47.34473,-23.30267 10.77622,1.9846 22.1842,13.11541 22.38702,24.07098 0.35324,19.0811 -34.80562,24.43291 -37.4126,43.33838 -0.81193,5.88804 10.17477,10.80767 7.56412,16.1474 z"
   inkscape:connector-curvature="0"
   sodipodi:nodetypes="sssssssssssss" />

  /&gt;
  <path
   id="blob_84"
   style="fill:#666666"
   d="m 623.03577,193.71368 c -13.1256,10.85121 -37.20448,-20.25846 -50.23786,-9.29666 -2.31431,1.94647 -0.15527,6.05812 0.0975,9.07157 1.01364,12.08536 10.62572,24.86689 5.6748,35.93811 -3.73243,8.34644 -13.981,16.06906 -23.04559,14.87439 -15.10728,-1.99108 -17.11461,-26.94221 -30.67395,-33.89478 -6.13524,-3.14585 -18.29444,4.19498 -20.55384,-2.31906 -4.2311,-12.19862 26.40864,-14.38133 27.53467,-27.2437 0.46576,-5.32019 -10.59421,-7.90557 -9.25775,-13.07618 1.06971,-4.1386 9.8001,-1.66629 11.55353,-5.56472 8.22908,-18.2958 -33.94595,-48.10696 -16.43524,-57.89619 13.20645,-7.382968 15.59857,32.56327 30.70379,33.42968 13.23028,0.75887 16.87867,-27.33896 30.06421,-26.01323 6.99798,0.7036 6.93633,12.95885 12.88819,16.70614 8.34417,5.25349 22.15759,-0.99695 28.93023,6.16934 4.49185,4.75293 2.52056,12.86599 3.00232,19.38788 0.97556,13.20674 9.96146,31.28952 -0.24499,39.72741 z"
   inkscape:connector-curvature="0"
   sodipodi:nodetypes="sssssssssssssssss" />

  /&gt;
  <path
   id="blob_85"
   style="fill:#222222"
   d="m 118.49642,597.50812 c -5.59185,9.90813 -17.99223,15.83082 -29.226431,17.62878 -12.723637,2.03634 -25.752623,-13.516 -37.679203,-8.63806 -11.903698,4.86858 -8.471121,36.20973 -20.786587,32.50427 -13.139974,-3.95353 6.140461,-28.58912 0.640679,-41.16058 -5.713173,-13.05924 -34.8545296,-14.59662 -31.853112,-28.53131 2.0303612,-9.42636 22.010267,-0.84885 27.582604,-8.71826 3.450552,-4.87297 -0.273675,-11.94035 -0.579762,-17.90345 -0.51003,-9.93624 -7.224087,-21.24997 -2.09358,-29.77447 7.648001,-12.70739 25.891377,-19.13787 40.680742,-18.02234 12.61012,0.95115 23.18201,11.32067 31.988854,20.39587 9.658786,9.95311 17.619936,22.36832 21.306046,35.73877 4.11782,14.93637 7.63482,32.98774 0.0198,46.48078 z"
   inkscape:connector-curvature="0"
   sodipodi:nodetypes="sssssssssssss" />

  /&gt;
  <path
   id="blob_86"
   style="fill:#888888"
   d="m 231.9377,436.78677 c -4.34707,6.48291 -16.36778,-1.25854 -23.30031,2.32825 -12.86679,6.6571 -14.5422,36.65034 -28.50906,32.80356 -11.15337,-3.07188 -0.95709,-23.81697 -6.14348,-34.15793 -2.15746,-4.30167 -7.85104,-6.1727 -9.85994,-10.54571 -2.34964,-5.11475 -2.47366,-11.19146 -1.84464,-16.78483 1.10727,-9.846 1.09467,-23.22635 9.7285,-28.08709 7.52189,-4.23473 16.68515,5.4317 25.31716,5.44488 6.40913,0.01 13.29981,-7.25894 18.80984,-3.98532 15.84466,9.41363 26.06617,37.67685 15.80193,52.98419 z"
   inkscape:connector-curvature="0"
   sodipodi:nodetypes="ssssssssss" />

  /&gt;
  <path
   id="blob_87"
   style="fill:#aaaaaa"
   d="m 243.80605,583.30115 c 2.94277,11.09883 15.74037,24.85492 8.14856,33.46936 -5.77223,6.54975 -18.51999,-7.40866 -26.02446,-2.94763 -11.02102,6.55143 -1.64989,36.21992 -14.45814,35.64294 -15.85271,-0.71413 -1.91599,-35.09264 -13.85575,-45.54541 -5.13497,-4.49545 -16.49831,2.41459 -20.2038,-3.31659 -4.16377,-6.43998 10.24269,-15.89829 5.9189,-22.23193 -7.19117,-10.53389 -35.2965,8.16079 -38.02103,-4.29926 -2.10878,-9.64409 19.74798,-7.18044 25.35381,-15.30633 5.85892,-8.49276 -2.44965,-23.93078 5.54575,-30.45209 4.54973,-3.71091 12.39306,-2.30296 17.60922,0.39197 7.24081,3.74096 6.44817,19.20867 14.5878,19.62176 18.25944,0.92669 19.29119,-44.9739 37.01269,-40.47784 9.31334,2.36285 8.34579,18.46529 6.9577,27.9729 -1.41432,9.68732 -13.70102,15.5741 -14.94192,25.28515 -0.97554,7.63435 4.39817,14.75363 6.37067,22.193 z"
   inkscape:connector-curvature="0"
   sodipodi:nodetypes="ssssssssssssssss" />

  /&gt;
  <path
   id="blob_88"
   style="fill:#666666"
   d="m 186.99539,559.48712 c -0.96598,12.11415 -23.0558,8.53522 -32.96699,15.56757 -8.02008,5.69053 -11.03391,19.21633 -20.70107,21.01904 -8.72307,1.62666 -16.07384,-7.53457 -24.25983,-10.95911 -4.06569,-1.70084 -9.356585,-1.5102 -12.335536,-4.75805 -5.095786,-5.55578 0.294319,-18.05214 -6.289703,-21.72425 -12.963416,-7.23007 -36.451077,25.3098 -42.899277,11.94025 -8.368727,-17.35153 47.602094,-14.67601 46.789139,-33.92309 -0.81991,-19.41174 -57.140686,-12.0802 -49.90638,-30.11219 6.594424,-16.43704 37.059311,21.34695 51.848976,11.60382 14.372001,-9.46798 -7.570866,-48.77772 9.526751,-50.74459 11.16938,-1.28491 6.50283,22.14155 13.58838,30.87088 3.31848,4.08834 10.78934,4.35168 12.84037,9.20144 2.54243,6.01168 -6.28353,13.78148 -2.90318,19.36514 3.68456,6.08616 13.81616,3.77979 20.16966,6.98139 13.52766,6.81674 38.70278,10.57156 37.49869,25.67175 z"
   inkscape:connector-curvature="0"
   sodipodi:nodetypes="ssssssssssssssss" />

  /&gt;
  <path
   id="blob_89"
   style="fill:#aaaaaa"
   d="m 568.14905,436.53671 c -1.51122,7.25234 6.87993,13.72611 6.87506,21.13422 -0.006,8.65759 0.25128,22.28847 -8.06708,24.6882 -11.31253,3.26351 -19.55446,-13.59133 -27.16833,-22.57202 -3.44925,-4.06844 -2.83007,-12.83993 -8.07398,-13.81506 -8.1549,-1.51645 -11.36801,13.62407 -19.43976,15.5343 -5.24362,1.24093 -12.1041,0.54887 -15.81216,-3.36084 -4.66189,-4.91541 -3.86992,-13.3372 -3.16773,-20.07526 0.80873,-7.7603 8.85862,-14.08698 8.33716,-21.87186 -0.64823,-9.67744 -14.63861,-15.89315 -13.89758,-25.56393 0.7864,-10.26286 8.52113,-23.10228 18.70956,-24.56531 13.47637,-1.93515 19.31791,25.28403 32.89057,24.21622 10.63532,-0.83672 13.0543,-27.75361 22.4881,-22.77228 12.90029,6.81175 -19.20316,33.18181 -8.37366,42.95624 12.77712,11.5323 39.88767,-29.34446 49.40741,-15.00488 7.39412,11.13775 -16.9287,20.69894 -25.63721,30.84213 -2.96872,3.4578 -8.14069,5.76859 -9.07037,10.23013 z"
   inkscape:connector-curvature="0"
   sodipodi:nodetypes="sssssssssssssssss" />

  /&gt;
  <path
   id="blob_90"
   style="fill:#aaaaaa"
   d="m 103.17262,365.60263 c -6.19084,15.05104 -31.761002,10.66483 -47.96277,9.12766 -6.055537,-0.57453 -10.888789,-7.00282 -16.96503,-6.72193 -16.502316,0.76288 -33.2374248,34.79252 -44.194123,22.4289 -12.145294,-13.70485 33.987247,-27.65345 30.571221,-45.64405 -1.583627,-8.34022 -17.220385,-6.86257 -20.942086,-14.49252 -4.27123141,-8.75655 -7.0775927,-24.92761 1.688439,-29.17935 11.247992,-5.45555 18.443485,19.24737 30.743965,21.47864 5.573559,1.01102 10.807533,-3.87223 16.461403,-4.21933 6.675432,-0.40982 14.191865,-0.91978 19.899132,2.56683 15.414534,9.41684 37.571169,27.94977 30.699849,44.65515 z"
   inkscape:connector-curvature="0"
   sodipodi:nodetypes="sssssssssss" />

  /&gt;
  <path
   id="blob_91"
   style="fill:#aaaaaa"
   d="m 49.655708,425.16785 c -6.080122,14.16737 6.448156,36.82663 -6.049778,45.85348 -11.455744,8.27412 -31.53644,1.92981 -41.642404,-7.94766 -8.0615678,-7.8793 0.7199837,-24.94339 -7.097758,-33.06467 -6.568589,-6.82362 -24.826173,2.05899 -27.534248,-7.01706 -3.290196,-11.027 16.173586,-16.43671 23.311705,-25.46264 4.6375236,-5.86401 9.47737187,-11.76031 12.607416,-18.54972 2.3814876,-5.1657 -0.4877012,-13.73 4.502622,-16.45996 6.106491,-3.34055 13.566886,3.40788 19.932574,6.2233 16.200509,7.16516 42.666578,9.4483 45.846573,26.87482 2.273321,12.4579 -18.882436,17.9129 -23.876702,29.55011 z"
   inkscape:connector-curvature="0"
   sodipodi:nodetypes="sssssssssss" />

  /&gt;
  <path
   id="blob_92"
   style="fill:#666666"
   d="m 729.79517,26.994938 c -10.00787,18.195567 27.11768,43.712776 14.88568,60.494137 -13.63857,18.711055 -49.53399,16.914285 -69.29328,4.844299 -10.58162,-6.463801 -14.77755,-21.801413 -14.63244,-34.200222 0.13189,-11.269914 9.12004,-20.618699 14.02404,-30.76656 3.91889,-8.109347 5.29777,-18.3936279 12.30048,-24.057653 7.89676,-6.3871632 19.73819,-4.8543265 29.42932,-7.893511 6.90047,-2.1640189 13.17992,-7.343231 20.41174,-7.35226 18.66451,-0.0233 52.90881,0.180074 52.72754,18.843714 -0.20438,21.043727 -49.711,1.6484675 -59.85308,20.088056 z"
   inkscape:connector-curvature="0"
   sodipodi:nodetypes="ssssssssss" />

  /&gt;
  <path
   id="blob_93"
   style="fill:#cccccc"
   d="m 571.69702,659.20917 c -2.67992,12.99412 -13.04154,23.56626 -22.60937,32.75787 -5.11072,4.90975 -10.88508,11.60629 -17.96796,11.36566 -18.14295,-0.61636 -32.68734,-17.92737 -43.94336,-32.16986 -5.6717,-7.17653 -9.21385,-16.25569 -10.65454,-25.28869 -3.42321,-21.46317 -9.48642,-49.11623 5.36838,-64.98194 10.67767,-11.40431 32.54437,-14.22547 46.35446,-6.9212 14.63413,7.74011 8.97691,33.99926 21.58325,44.72992 3.87722,3.30033 11.2095,0.59391 14.64081,4.35571 8.28188,9.07958 9.71066,24.11649 7.22833,36.15253 z"
   inkscape:connector-curvature="0"
   sodipodi:nodetypes="ssssssssss" />

  /&gt;
  <path
   id="blob_94"
   style="fill:#888888"
   d="m 317.35776,413.17075 c 2.17352,10.90582 -9.3164,23.49447 -19.95389,26.73562 -12.64182,3.85185 -26.37482,-5.86786 -37.40189,-13.15182 -4.62077,-3.05227 -6.05183,-10.26238 -11.21963,-12.25278 -3.86396,-1.48822 -8.42474,-0.0992 -12.36701,1.16717 -13.6274,4.37735 -24.63248,28.64139 -37.10243,21.61518 -8.89885,-5.01407 -1.50647,-20.47147 -0.52272,-30.63821 0.6236,-6.44476 5.49068,-12.68561 4.04889,-18.9979 -2.37345,-10.39121 -17.98787,-14.74 -19.58249,-25.27887 -1.17078,-7.73771 2.22473,-16.9805 8.24317,-21.98264 11.40878,-9.48223 29.00782,-7.03996 43.82608,-7.7416 8.53678,-0.40422 19.88172,-4.33597 25.55661,2.05432 9.87369,11.11843 -9.59502,31.97248 -1.70548,44.57663 1.87838,3.00085 6.60838,2.59038 9.72354,4.2724 5.20685,2.81142 9.8605,6.54784 14.88596,9.67196 11.05522,6.8726 31.02699,7.18429 33.57129,19.95054 z"
   inkscape:connector-curvature="0"
   sodipodi:nodetypes="ssssssssssssssss" />

  /&gt;
  <path
   id="blob_95"
   style="fill:#cccccc"
   d="m 176.85774,464.23801 c -1.62805,1.96437 -0.52723,5.09646 -0.38954,7.64407 0.25755,4.76542 2.48522,9.36944 2.26546,14.13675 -0.33714,7.31344 -2.9757,14.38689 -5.45586,21.27521 -3.70674,10.29502 -3.09844,28.61656 -13.98697,29.69699 -9.72684,0.96516 -12.90916,-14.90764 -17.46441,-23.55591 -4.99846,-9.4897 -3.58131,-22.20778 -10.47599,-30.42377 -5.90774,-7.03991 -22.63308,-4.29458 -24.11522,-13.36459 -1.23101,-7.53325 15.46265,-9.26537 15.45401,-16.89853 -0.0157,-13.89503 -35.638301,-18.96024 -28.20129,-30.69748 10.63142,-16.77873 40.20877,28.48589 56.89676,17.71259 15.15863,-9.786 -7.87696,-42.97251 6.61325,-53.72348 5.23549,-3.88446 14.31764,-0.89875 19.27,3.34075 6.81485,5.8339 6.07407,16.89233 8.63054,25.49122 2.60551,8.7638 0.8788,19.62147 6.82601,26.56579 6.6583,7.77465 29.07359,1.92497 28.21332,12.12488 -1.27057,15.06464 -34.43292,-0.96452 -44.08007,10.67551 z"
   inkscape:connector-curvature="0"
   sodipodi:nodetypes="sssssssssssssssss" />

  /&gt;
  <path
   id="blob_96"
   style="fill:#666666"
   d="m 341.38214,351.37869 c -6.99065,18.40132 -39.70067,15.33781 -58.35516,9.0539 -8.94647,-3.01369 -10.21466,-20.36128 -19.65503,-20.39054 -8.34878,-0.0259 -9.2593,16.54737 -17.49373,17.92469 -8.3183,1.39134 -18.15293,-4.20628 -22.60252,-11.37085 -9.85906,-15.87467 -13.63232,-42.88205 -0.38274,-56.05985 7.99573,-7.95242 24.17705,6.24723 33.82872,0.41474 12.17576,-7.3578 5.15891,-38.34978 19.38144,-38.02418 11.5555,0.26455 8.69384,21.48344 14.31671,31.5821 5.38449,9.67052 11.87195,18.70902 18.48749,27.58294 10.15503,13.62173 38.50875,23.40411 32.47482,39.28705 z"
   inkscape:connector-curvature="0"
   sodipodi:nodetypes="sssssssssss" />

  /&gt;
  <path
   id="blob_97"
   style="fill:#888888"
   d="m 625.0639,697.3706 c -0.26542,9.96118 -13.24522,14.89238 -19.9909,22.22663 -5.52852,6.01088 -10.23739,12.96624 -16.78522,17.84692 -10.93645,8.15192 -23.11923,20.58569 -36.57538,18.3515 -10.38771,-1.72471 -17.9258,-12.88204 -22.1419,-22.53106 -3.62537,-8.29705 -2.21533,-18.12704 -1.28174,-27.1333 1.0592,-10.21809 1.79413,-21.45244 7.73761,-29.83136 4.15611,-5.85916 14.98465,-5.43598 17.89941,-12.00159 7.04741,-15.87457 -19.9743,-39.47206 -7.50476,-51.5625 7.76365,-7.52762 23.88955,-1.55473 31.94379,5.66113 8.05415,7.21579 1.07662,23.90847 9.12408,31.13172 5.72019,5.13432 17.89525,-1.93521 22.69812,4.06598 5.0135,6.26436 -3.5578,16.42587 -1.05084,24.04772 2.64076,8.02865 16.15286,11.27942 15.92773,19.72821 z"
   inkscape:connector-curvature="0"
   sodipodi:nodetypes="ssssssssssssss" />

  /&gt;
  <path
   id="blob_98"
   style="fill:#222222"
   d="m 638.3551,274.42242 c 1.96648,15.43466 27.0256,27.74976 20.56446,41.90424 -10.1215,22.17325 -47.70836,26.75884 -70.69977,18.66608 -13.59988,-4.78703 -24.12605,-20.46881 -25.68384,-34.80219 -1.61812,-14.88843 12.87966,-27.07229 18.28955,-41.03714 1.61477,-4.1683 1.69143,-9.04203 4.21753,-12.72999 4.5151,-6.5918 11.79732,-10.88986 18.49249,-15.2502 9.90235,-6.44908 20.85234,-20.60898 31.68866,-15.89505 9.76431,4.24759 8.54958,20.01476 8.98847,30.6539 0.39961,9.68718 -7.0829,18.87267 -5.85755,28.49035 z"
   inkscape:connector-curvature="0"
   sodipodi:nodetypes="ssssssssss" />

  /&gt;
  <path
   id="blob_99"
   style="fill:#aaaaaa"
   d="m 440.51343,589.03442 c -6.92118,10.70776 -27.00003,-12.69726 -37.7908,-5.90625 -18.25415,11.48797 2.8458,63.75423 -18.64759,61.95929 -19.0987,-1.59495 4.56477,-41.91927 -7.20855,-57.04187 -3.13996,-4.03321 -9.21705,-4.87171 -14.27701,-5.59485 -17.87923,-2.55518 -49.66359,22.38833 -53.96543,4.84723 -4.43839,-18.09792 43.12345,-4.77037 51.67481,-21.3266 6.58038,-12.74022 -14.88024,-28.5804 -9.63345,-41.92529 3.66725,-9.32744 15.21808,-19.50653 24.8879,-16.87131 12.78602,3.48446 5.86696,28.79339 17.03983,35.92014 6.75766,4.31045 17.75515,-4.78179 24.04535,0.18603 3.96844,3.13417 1.61425,10.09198 3.62942,14.72992 4.92092,11.32551 26.94876,20.65298 20.24552,31.02356 z"
   inkscape:connector-curvature="0"
   sodipodi:nodetypes="sssssssssssss" />

  /&gt;
 </g>
</svg>
