<svg 
  xmlns="http://www.w3.org/2000/svg"
  xmlns:inkscape="http://www.inkscape.org/namespaces/inkscape"
  width="900.000000"
  height="900.000000"
  viewBox="-75.000000 -75.000000 900.000000 900.000000">
 <g  id="background" inkscape:label="background" inkscape:groupmode="layer">
  <rect id="background" style="fill:#000099"
   width="900.000000"
   height="900.000000"
   x="-75.000000"
   y="-75.000000"
   rx="50.000000"
  />
 </g>
 <g  id="camo_blobs" inkscape:label="camo_blobs" inkscape:groupmode="layer">
  <path id="blob_0" style="fill:#cccccc"
   d="M 314.331970,284.935760
    L 294.480804,318.005676
    L 258.388733,288.172852
    L 244.808441,303.205750
    L 236.742905,284.749695
    L 214.007843,267.366882
    L 218.485367,251.380295
    L 205.653625,203.825272
    L 248.261261,231.891251
    L 269.134125,200.135590
    L 294.225433,221.141968
    L 317.641418,241.257492
    Z"/>
  />
  <path id="blob_1" style="fill:#666666"
   d="M 298.542175,209.665222
    L 298.876038,233.334442
    L 270.190613,241.412994
    L 252.616364,263.229248
    L 233.845871,241.317673
    L 206.746704,240.186859
    L 189.691803,194.732071
    L 243.703308,190.727036
    L 216.477570,147.554199
    L 237.841705,145.422791
    L 258.952637,156.274506
    L 291.990173,154.755188
    L 316.719330,152.614258
    Z"/>
  />
  <path id="blob_2" style="fill:#444444"
   d="M 771.862061,396.724884
    L 757.664246,422.009674
    L 726.257874,410.871948
    L 712.955444,423.286621
    L 695.742676,430.475647
    L 689.435547,360.022705
    L 682.097717,322.067657
    L 701.378174,316.315155
    L 742.251160,347.614410
    L 782.225098,361.153351
    Z"/>
  />
  <path id="blob_3" style="fill:#888888"
   d="M 126.830872,264.249512
    L 130.814407,285.227936
    L 98.376328,271.445343
    L 86.610153,318.137299
    L 51.334232,313.953918
    L 28.779755,295.174042
    L 37.795567,268.108215
    L 59.985199,248.312378
    L 55.221840,232.849731
    L 58.344479,202.510696
    L 78.256241,205.729858
    L 109.745010,181.077789
    L 157.668610,214.089752
    L 167.607513,248.257568
    Z"/>
  />
  <path id="blob_4" style="fill:#666666"
   d="M 238.845078,219.933655
    L 230.453918,250.173615
    L 182.228210,272.081329
    L 153.512787,244.934113
    L 149.910889,213.349945
    L 97.065376,209.571945
    L 110.680237,165.929047
    L 161.739471,183.010712
    L 153.342133,145.994064
    L 187.399704,159.828415
    L 188.846970,177.612640
    L 243.254822,157.376495
    Z"/>
  />
  <path id="blob_5" style="fill:#666666"
   d="M 616.477905,272.557739
    L 607.612915,291.910583
    L 606.234802,324.899536
    L 575.200134,279.929260
    L 559.021851,275.667267
    L 522.726318,270.949036
    L 554.925903,256.751251
    L 560.697754,244.644852
    L 574.369934,194.550262
    L 583.817261,234.179718
    L 621.112427,210.816193
    L 622.230774,247.325287
    Z"/>
  />
  <path id="blob_6" style="fill:#ffffff"
   d="M 361.638153,445.232025
    L 363.113739,480.848816
    L 324.813232,446.774597
    L 298.568390,496.912476
    L 276.357788,445.467896
    L 268.303864,411.460541
    L 287.867126,392.837250
    L 291.224060,359.848877
    L 336.183136,357.312500
    L 367.091003,398.897156
    L 348.904053,423.428009
    Z"/>
  />
  <path id="blob_7" style="fill:#444444"
   d="M 636.994263,30.276800
    L 629.621216,62.261726
    L 599.681030,61.457863
    L 579.095825,42.604858
    L 569.767029,30.507116
    L 544.115784,56.301384
    L 548.798401,20.826191
    L 500.278717,18.647739
    L 511.197662,-13.012074
    L 557.238403,-4.728992
    L 566.064331,-7.861126
    L 573.736694,-52.254524
    L 590.950562,-39.012733
    L 596.393860,-13.744057
    L 629.039551,-18.308001
    L 594.437622,7.051661
    Z"/>
  />
  <path id="blob_8" style="fill:#cccccc"
   d="M 310.661133,547.199158
    L 307.674194,560.446838
    L 304.397827,586.920532
    L 271.710602,569.463501
    L 263.569916,553.936462
    L 230.942429,567.590027
    L 219.322449,534.385864
    L 225.379730,511.178253
    L 238.878815,490.239746
    L 266.176331,502.637726
    L 276.964813,505.503784
    L 304.080383,474.687988
    L 340.439941,497.391144
    L 315.708527,530.549622
    Z"/>
  />
  <path id="blob_9" style="fill:#888888"
   d="M 313.386444,707.938049
    L 277.680115,705.568970
    L 267.944824,718.505066
    L 249.771347,719.096497
    L 221.823669,745.725952
    L 221.108490,716.294556
    L 190.620834,705.442261
    L 217.510574,683.342590
    L 206.581711,664.227539
    L 212.273010,639.853882
    L 230.397919,606.314392
    L 254.616364,634.185364
    L 264.064301,661.265686
    L 317.645447,644.691345
    L 279.990875,678.482971
    Z"/>
  />
  <path id="blob_10" style="fill:#000000"
   d="M 725.365234,190.064896
    L 719.798584,224.342224
    L 687.222412,216.684830
    L 666.839783,248.081879
    L 660.084900,198.643372
    L 610.292114,215.320221
    L 656.197388,179.225067
    L 606.407166,159.164932
    L 662.928406,163.283920
    L 654.167114,101.556923
    L 680.825684,121.071709
    L 687.237854,146.877182
    L 731.416443,130.875549
    L 727.556580,162.622910
    Z"/>
  />
  <path id="blob_11" style="fill:#cccccc"
   d="M 592.293274,599.095764
    L 574.924316,618.882690
    L 538.066650,594.519104
    L 523.534851,594.408569
    L 508.198151,604.830627
    L 482.932129,614.731018
    L 480.926056,584.410278
    L 506.531158,564.149719
    L 492.910400,541.435852
    L 508.851929,494.207092
    L 526.886780,548.242310
    L 543.839172,520.716187
    L 572.114075,543.372009
    L 577.247375,557.365845
    Z"/>
  />
  <path id="blob_12" style="fill:#eeeeee"
   d="M 313.742798,71.801544
    L 268.915863,77.395760
    L 268.749725,95.682281
    L 248.713577,93.884476
    L 222.217987,95.363419
    L 220.204071,78.171173
    L 184.034088,66.686928
    L 198.276398,48.977753
    L 209.977448,39.548096
    L 226.802994,35.513252
    L 225.023682,4.788200
    L 249.065460,20.898277
    L 271.793854,-4.123333
    L 264.296631,41.590015
    L 269.547699,52.131298
    Z"/>
  />
  <path id="blob_13" style="fill:#888888"
   d="M 619.913513,577.419495
    L 633.690308,608.789917
    L 601.624756,600.714294
    L 589.515442,619.920105
    L 529.895447,603.647156
    L 535.402771,565.020630
    L 577.138794,540.801941
    L 578.857849,506.811646
    L 625.252930,536.687744
    Z"/>
  />
  <path id="blob_14" style="fill:#222222"
   d="M 669.420837,352.658997
    L 652.176392,381.126556
    L 613.861023,373.828400
    L 588.345764,347.007904
    L 578.849976,313.642944
    L 607.929443,268.899719
    L 634.681335,306.359344
    L 663.317200,321.448486
    Z"/>
  />
  <path id="blob_15" style="fill:#888888"
   d="M 505.770111,431.490845
    L 481.081818,432.800873
    L 479.480042,459.642090
    L 444.862366,475.338623
    L 435.385071,438.210663
    L 421.005219,434.463013
    L 400.218994,402.245758
    L 432.564301,402.810150
    L 428.022095,375.536011
    L 471.927307,362.651031
    L 478.103119,386.787811
    L 491.032867,399.657715
    Z"/>
  />
  <path id="blob_16" style="fill:#000000"
   d="M 155.388275,665.450745
    L 150.130646,687.776367
    L 134.030914,696.045349
    L 103.911560,694.513611
    L 90.662109,692.626770
    L 70.155670,699.035034
    L 72.124725,664.242493
    L 67.465576,655.623901
    L 81.710289,639.268433
    L 81.362015,629.461487
    L 89.211861,622.194092
    L 98.995445,582.683594
    L 109.281723,623.978516
    L 137.964752,591.371338
    L 145.206604,615.997559
    L 177.657654,636.312561
    Z"/>
  />
  <path id="blob_17" style="fill:#888888"
   d="M 229.153870,124.073166
    L 208.434845,169.499741
    L 186.811996,169.956177
    L 138.059326,129.995743
    L 124.403671,107.229446
    L 172.900497,69.672989
    L 190.814484,47.931458
    L 207.495667,55.825241
    L 207.838272,86.128860
    Z"/>
  />
  <path id="blob_18" style="fill:#222222"
   d="M 198.707779,265.934998
    L 172.206497,281.501343
    L 142.807709,312.679016
    L 139.744263,250.686813
    L 110.574249,244.652786
    L 141.992249,222.217834
    L 146.487518,178.794098
    L 161.221054,207.970779
    L 182.913757,213.639786
    Z"/>
  />
  <path id="blob_19" style="fill:#888888"
   d="M 304.606140,662.524841
    L 281.523712,666.618652
    L 262.906189,672.260864
    L 255.391708,716.088745
    L 237.480118,676.768433
    L 226.555634,668.915649
    L 183.524338,673.001282
    L 204.004547,647.868591
    L 201.339050,623.167664
    L 207.800385,602.508484
    L 228.002686,601.914307
    L 239.336670,585.853149
    L 263.032776,585.412903
    L 281.431824,604.322876
    L 278.356720,627.784729
    L 314.146606,633.952454
    Z"/>
  />
  <path id="blob_20" style="fill:#aaaaaa"
   d="M 359.430481,148.586029
    L 317.551636,141.171814
    L 295.440582,131.330231
    L 250.775055,135.126617
    L 267.784973,76.809509
    L 276.262726,51.216236
    L 308.938080,93.108215
    L 357.981995,73.357414
    Z"/>
  />
  <path id="blob_21" style="fill:#444444"
   d="M 420.267059,692.530945
    L 407.930786,718.911987
    L 372.661957,746.019165
    L 364.497986,710.178833
    L 353.460052,689.792542
    L 322.733704,666.161072
    L 337.291901,646.688354
    L 380.969025,665.446533
    Z"/>
  />
  <path id="blob_22" style="fill:#666666"
   d="M 486.907410,512.313904
    L 439.084473,514.115601
    L 422.632874,517.375916
    L 407.702728,536.546509
    L 395.778442,520.531555
    L 387.156952,510.995300
    L 392.792938,496.392700
    L 346.106689,468.996307
    L 371.096039,438.543091
    L 406.363007,466.610291
    L 414.841980,448.623596
    L 424.693024,458.764282
    L 428.487885,475.360748
    L 432.598053,483.668304
    Z"/>
  />
  <path id="blob_23" style="fill:#666666"
   d="M 157.327881,48.246864
    L 165.692841,83.966995
    L 138.339462,88.326004
    L 117.549202,73.640640
    L 76.678650,84.636749
    L 79.039246,52.843422
    L 79.145569,31.559635
    L 50.899002,9.555613
    L 70.928467,-3.285477
    L 90.413620,-3.111176
    L 110.400330,12.049576
    L 131.026184,0.551289
    L 168.433945,-28.260754
    L 165.067627,7.631136
    Z"/>
  />
  <path id="blob_24" style="fill:#eeeeee"
   d="M 521.939331,76.901512
    L 496.046478,115.245255
    L 456.829285,71.636566
    L 436.808960,97.181686
    L 437.697845,57.294617
    L 392.434540,32.961967
    L 426.495209,28.113600
    L 437.804749,1.792488
    L 476.923187,-1.583515
    L 470.888733,39.832031
    L 512.491394,43.273659
    Z"/>
  />
  <path id="blob_25" style="fill:#aaaaaa"
   d="M 684.150330,44.173115
    L 663.025208,56.209217
    L 658.343689,97.601410
    L 632.468323,59.439880
    L 586.535095,76.340668
    L 605.390991,41.110741
    L 605.876587,28.893373
    L 599.003174,15.850263
    L 611.036438,-22.688538
    L 633.095093,-23.396770
    L 648.453064,-21.408070
    L 646.902039,8.728067
    L 696.273376,6.986376
    Z"/>
  />
  <path id="blob_26" style="fill:#666666"
   d="M 539.468384,491.589691
    L 495.047516,530.278625
    L 474.793518,506.758453
    L 443.507751,492.363647
    L 426.622681,464.753113
    L 413.622986,435.564728
    L 473.755981,416.411987
    L 492.921265,389.621063
    L 552.446838,452.097229
    Z"/>
  />
  <path id="blob_27" style="fill:#cccccc"
   d="M 377.155853,659.836060
    L 360.785645,672.316711
    L 349.272003,682.657715
    L 338.376495,710.832764
    L 309.561249,687.657532
    L 285.975952,685.262573
    L 267.160217,674.377197
    L 250.265793,659.882996
    L 269.710236,635.041626
    L 289.303558,616.146057
    L 307.264038,610.859009
    L 324.969757,590.447205
    L 343.766113,576.749451
    L 367.305756,584.660156
    L 386.018768,596.884399
    L 350.935547,635.249756
    Z"/>
  />
  <path id="blob_28" style="fill:#888888"
   d="M 398.668945,78.990303
    L 369.034180,93.037277
    L 346.460632,90.346878
    L 328.751251,109.442657
    L 316.419159,84.663116
    L 293.636353,68.514641
    L 305.683960,42.967896
    L 297.829559,20.229706
    L 300.915985,-8.573105
    L 338.945404,-10.703995
    L 353.201752,11.686760
    L 382.969147,10.805450
    L 352.127014,43.659519
    Z"/>
  />
  <path id="blob_29" style="fill:#888888"
   d="M 717.706787,711.364319
    L 722.551758,732.099670
    L 693.722839,760.466431
    L 680.465637,717.795471
    L 676.002930,709.966675
    L 673.010254,700.342529
    L 656.952148,678.679871
    L 670.972961,670.201050
    L 710.064697,643.807129
    L 730.785034,643.574219
    L 743.677429,672.818542
    Z"/>
  />
  <path id="blob_30" style="fill:#aaaaaa"
   d="M 566.191772,494.938660
    L 556.545654,501.889801
    L 514.466003,545.025391
    L 483.359436,519.660034
    L 521.326172,475.858459
    L 530.781677,452.347443
    L 536.915710,397.386139
    L 566.789429,427.955322
    Z"/>
  />
  <path id="blob_31" style="fill:#666666"
   d="M 486.423187,48.771412
    L 438.318298,32.292374
    L 428.843079,44.641743
    L 393.961975,69.670433
    L 414.771576,26.342813
    L 360.105957,34.334305
    L 380.224976,6.855618
    L 367.223328,-14.992019
    L 415.699402,-23.772064
    L 469.770966,-35.947250
    L 464.427399,0.330168
    Z"/>
  />
  <path id="blob_32" style="fill:#444444"
   d="M 429.342255,318.004608
    L 398.362762,328.834686
    L 364.520599,360.656097
    L 345.393555,308.816284
    L 353.329346,275.794250
    L 382.947662,260.971100
    L 407.766907,244.885132
    L 434.227356,277.601562
    Z"/>
  />
  <path id="blob_33" style="fill:#444444"
   d="M 265.260010,130.558441
    L 226.796951,137.363632
    L 212.392624,148.844757
    L 205.915009,120.264938
    L 176.158813,63.645206
    L 214.763916,87.501167
    L 220.486496,34.679276
    L 254.758026,53.593159
    Z"/>
  />
  <path id="blob_34" style="fill:#888888"
   d="M 71.087387,211.625244
    L 19.817875,244.126099
    L -6.694466,202.704712
    L -14.156656,184.807205
    L -22.418274,143.514267
    L 5.237579,131.426895
    L 50.889767,122.742035
    L 29.486765,166.310822
    Z"/>
  />
  <path id="blob_35" style="fill:#666666"
   d="M 336.555878,320.134033
    L 359.908844,359.284790
    L 322.905518,342.695496
    L 285.272736,369.624146
    L 253.777771,353.945312
    L 282.592224,313.974152
    L 286.811768,297.257721
    L 286.502625,271.055115
    L 298.092468,262.369141
    L 315.347351,272.945068
    L 333.799377,284.382355
    L 363.892151,296.108704
    Z"/>
  />
  <path id="blob_36" style="fill:#888888"
   d="M 551.661926,176.724182
    L 549.268616,205.728973
    L 510.996582,190.585861
    L 468.965179,183.027817
    L 436.700073,177.593201
    L 454.064392,160.105560
    L 458.121490,140.473892
    L 471.138916,129.849426
    L 484.315094,115.418945
    L 520.635803,111.133133
    L 508.327911,153.284927
    Z"/>
  />
  <path id="blob_37" style="fill:#888888"
   d="M 652.003296,111.242516
    L 673.170227,150.255524
    L 646.304138,157.994263
    L 616.291748,156.148254
    L 588.362915,158.834793
    L 569.586243,135.182877
    L 554.481934,113.742249
    L 595.968567,98.458138
    L 557.029724,78.121101
    L 586.534302,72.039261
    L 610.202209,45.460304
    L 630.255798,52.686035
    L 644.552612,57.918297
    L 635.295349,88.907074
    L 685.192505,81.785080
    Z"/>
  />
  <path id="blob_38" style="fill:#888888"
   d="M 508.302856,699.741150
    L 489.319611,753.068420
    L 461.826660,735.137512
    L 439.711365,701.343201
    L 400.915161,707.202209
    L 416.232330,655.270508
    L 428.873993,613.356995
    L 457.652649,657.460510
    L 471.334869,652.768921
    L 478.030701,675.521240
    Z"/>
  />
  <path id="blob_39" style="fill:#cccccc"
   d="M 237.058167,37.010593
    L 219.158859,43.933212
    L 202.407898,42.529633
    L 187.331848,50.429382
    L 166.570709,57.636726
    L 170.217407,29.877008
    L 118.167099,63.462959
    L 148.775940,25.956566
    L 160.221359,9.154116
    L 144.581192,-18.003767
    L 173.861786,-2.993917
    L 179.625137,-18.400373
    L 190.305054,-19.958906
    L 224.182648,-49.255150
    L 237.322662,-28.437399
    L 207.899139,6.396792
    Z"/>
  />
  <path id="blob_40" style="fill:#aaaaaa"
   d="M 664.639160,716.276306
    L 666.785583,737.803162
    L 644.310181,727.709717
    L 636.460999,765.500183
    L 620.276978,759.809814
    L 580.352539,747.177368
    L 574.730408,721.852234
    L 576.969604,701.447327
    L 570.994690,665.689209
    L 594.415649,638.088440
    L 628.188843,676.758301
    L 647.959778,663.737061
    L 649.876526,682.307739
    L 679.750061,677.481079
    L 665.305359,700.709229
    Z"/>
  />
  <path id="blob_41" style="fill:#666666"
   d="M 717.081421,363.391449
    L 751.593994,409.387573
    L 686.646057,375.123291
    L 640.659607,372.662964
    L 671.894226,328.188446
    L 686.551331,318.670380
    L 716.829590,331.161774
    L 760.747925,321.247711
    Z"/>
  />
  <path id="blob_42" style="fill:#000000"
   d="M 395.675568,163.301132
    L 407.606384,183.896988
    L 393.860748,213.510468
    L 363.895447,214.921707
    L 363.104950,168.018738
    L 341.002258,167.231689
    L 316.950073,158.113800
    L 310.966187,130.649643
    L 341.929047,89.974998
    L 372.742767,90.416710
    L 396.641205,80.807411
    L 388.796631,133.437744
    L 401.160156,133.749207
    Z"/>
  />
  <path id="blob_43" style="fill:#aaaaaa"
   d="M 458.034546,144.500610
    L 454.651825,157.801071
    L 421.965698,184.683456
    L 404.444153,177.703033
    L 400.899414,146.384750
    L 342.463287,165.415070
    L 356.208496,132.191879
    L 361.604919,99.202759
    L 386.518463,91.553131
    L 404.035217,51.642868
    L 426.227295,69.083405
    L 437.539246,113.036514
    L 491.670593,124.170967
    Z"/>
  />
  <path id="blob_44" style="fill:#444444"
   d="M 510.959015,328.593475
    L 499.122803,355.796387
    L 477.474945,350.605347
    L 454.964935,344.061371
    L 406.520538,322.527496
    L 413.804626,300.218384
    L 412.757690,263.545135
    L 444.115723,274.142822
    L 463.322205,251.724670
    L 518.490051,250.851913
    L 535.557495,286.646271
    Z"/>
  />
  <path id="blob_45" style="fill:#666666"
   d="M 501.884735,570.540039
    L 497.465057,591.981018
    L 456.609467,622.932007
    L 443.855591,577.377258
    L 419.212189,563.930786
    L 385.171844,521.220276
    L 427.407532,498.087433
    L 458.095703,525.808594
    L 471.149597,519.423096
    L 492.450317,546.035095
    Z"/>
  />
  <path id="blob_46" style="fill:#cccccc"
   d="M 763.089355,631.993835
    L 773.063477,669.357666
    L 704.877075,646.987061
    L 695.376099,632.030212
    L 682.509338,588.043213
    L 720.570740,571.767700
    L 734.516174,592.541870
    L 799.027588,589.628357
    Z"/>
  />
  <path id="blob_47" style="fill:#000000"
   d="M 100.613007,703.365295
    L 72.779373,700.686218
    L 63.702103,708.080017
    L 56.500103,724.964233
    L 42.943405,720.319580
    L 14.969086,729.124634
    L -10.991909,715.908203
    L 2.329849,688.939941
    L -17.605873,670.123291
    L -6.866493,633.775940
    L 22.866615,633.652527
    L 41.678379,619.064331
    L 58.144611,666.718506
    L 74.745384,659.582520
    L 105.867081,653.506592
    L 85.230759,679.130127
    Z"/>
  />
  <path id="blob_48" style="fill:#444444"
   d="M 77.495346,643.527588
    L 35.937653,632.725159
    L 23.858162,627.373840
    L -41.124702,635.297729
    L -20.473127,589.819946
    L 3.931562,587.519104
    L 12.607346,580.229980
    L 18.946976,545.118469
    L 64.689575,589.420471
    Z"/>
  />
  <path id="blob_49" style="fill:#cccccc"
   d="M 531.907288,641.809631
    L 489.287537,638.389526
    L 471.558533,638.571411
    L 450.003662,643.613525
    L 423.818237,644.084106
    L 417.698334,622.364258
    L 448.650299,583.566284
    L 458.742676,544.420166
    L 480.551697,550.034973
    L 499.639801,566.760315
    L 524.702393,602.691772
    Z"/>
  />
  <path id="blob_50" style="fill:#aaaaaa"
   d="M 360.641296,718.514709
    L 323.108215,760.318054
    L 283.019592,755.835693
    L 259.492188,733.290222
    L 263.761810,682.856567
    L 270.997864,640.023071
    L 311.985657,674.751160
    L 322.271240,680.247925
    L 355.079773,689.388550
    Z"/>
  />
  <path id="blob_51" style="fill:#888888"
   d="M 438.026245,419.873535
    L 456.737732,448.018433
    L 432.096741,452.199463
    L 392.848511,436.199524
    L 385.247070,430.576416
    L 375.650482,422.603668
    L 340.216858,428.734985
    L 350.471344,407.162506
    L 327.888031,388.197937
    L 369.886261,387.041626
    L 362.597534,351.174042
    L 386.446899,381.544708
    L 414.668579,331.319824
    L 407.397186,385.407471
    L 451.091553,371.468048
    L 448.556702,401.350128
    Z"/>
  />
  <path id="blob_52" style="fill:#aaaaaa"
   d="M 152.657425,339.271912
    L 143.110916,365.703094
    L 113.605232,362.214294
    L 87.757149,359.646667
    L 64.657776,335.662476
    L 76.100250,313.847473
    L 62.416740,290.936768
    L 77.645309,260.279694
    L 108.952713,261.571136
    L 128.663162,307.692993
    L 158.412125,314.756409
    Z"/>
  />
  <path id="blob_53" style="fill:#666666"
   d="M 69.838440,531.739868
    L 37.186668,538.703430
    L 23.222776,528.572510
    L -22.851959,540.188843
    L -24.934456,505.956970
    L -26.237556,494.244720
    L -15.511101,429.956543
    L 33.835026,446.138031
    L 35.011711,478.516174
    L 71.223007,471.756317
    Z"/>
  />
  <path id="blob_54" style="fill:#888888"
   d="M 93.942734,80.218216
    L 72.541794,99.173943
    L 51.985069,105.645996
    L 12.585170,122.379387
    L -1.684561,91.602509
    L -15.135498,82.131317
    L -4.184095,55.398621
    L -21.527206,46.331276
    L 0.461891,36.694393
    L 7.496728,12.655273
    L 17.975817,-12.643898
    L 43.008465,20.814352
    L 48.648651,36.157463
    L 90.452904,35.866085
    Z"/>
  />
  <path id="blob_55" style="fill:#000000"
   d="M 147.539368,484.580505
    L 155.914169,503.813049
    L 126.869011,497.171844
    L 119.821640,514.000183
    L 98.353363,525.309326
    L 98.176926,492.408417
    L 48.759384,495.260681
    L 88.871262,472.120270
    L 87.316040,452.301361
    L 106.944527,457.212524
    L 103.100494,425.967834
    L 126.089973,397.099609
    L 144.740860,441.476746
    L 167.862000,451.422638
    L 176.737900,472.486176
    Z"/>
  />
  <path id="blob_56" style="fill:#888888"
   d="M 178.259430,726.222961
    L 158.656982,758.040405
    L 136.616043,771.064758
    L 78.987747,754.009827
    L 97.803787,709.740173
    L 79.335220,655.288025
    L 102.739891,631.825256
    L 178.502502,645.174072
    L 143.320465,692.817444
    Z"/>
  />
  <path id="blob_57" style="fill:#aaaaaa"
   d="M 740.223694,275.693481
    L 687.945862,277.673889
    L 657.830444,308.340302
    L 646.665039,265.530243
    L 657.708801,244.567322
    L 618.925964,232.803589
    L 679.439331,208.155975
    L 703.982178,205.001038
    L 730.307495,204.415695
    Z"/>
  />
  <path id="blob_58" style="fill:#666666"
   d="M 729.038086,525.223389
    L 700.464722,549.564758
    L 679.985168,537.958679
    L 651.628967,515.429260
    L 663.694092,486.999573
    L 672.388977,465.439819
    L 723.917786,436.373413
    L 715.794250,487.669678
    Z"/>
  />
  <path id="blob_59" style="fill:#aaaaaa"
   d="M 29.482615,101.783112
    L 41.739086,151.661270
    L 1.417645,152.585541
    L -7.589582,109.306053
    L -64.922821,97.850052
    L -6.380375,69.401207
    L -3.005184,23.762589
    L 41.498787,45.720528
    L 40.438820,73.793961
    Z"/>
  />
  <path id="blob_60" style="fill:#aaaaaa"
   d="M 366.405579,187.915421
    L 363.215942,214.742966
    L 331.400208,228.045700
    L 318.657532,223.071930
    L 311.592285,159.452911
    L 321.475525,131.009918
    L 349.752533,158.862396
    L 375.042542,153.163361
    Z"/>
  />
  <path id="blob_61" style="fill:#888888"
   d="M 142.911789,407.474762
    L 117.913269,423.040527
    L 100.237671,411.823151
    L 77.359390,419.532410
    L 56.885452,404.469604
    L 65.286079,383.775726
    L 69.314026,371.138519
    L 81.930901,365.781555
    L 87.787292,323.040833
    L 114.124916,329.978088
    L 117.125328,367.047089
    L 157.446304,362.340729
    Z"/>
  />
  <path id="blob_62" style="fill:#444444"
   d="M 281.926422,501.783997
    L 262.636505,523.259583
    L 240.648087,518.473633
    L 223.772324,512.122375
    L 163.629730,475.655396
    L 200.130539,425.281433
    L 224.747375,415.517151
    L 291.712158,410.964508
    L 287.337555,463.722778
    Z"/>
  />
  <path id="blob_63" style="fill:#cccccc"
   d="M 553.562622,114.422096
    L 548.448608,133.898392
    L 519.233521,186.210663
    L 523.517944,124.827934
    L 508.758820,121.384583
    L 468.666321,87.276909
    L 507.762482,48.360176
    L 534.650696,31.707573
    L 542.438232,91.648201
    L 614.540771,99.241203
    Z"/>
  />
  <path id="blob_64" style="fill:#444444"
   d="M 224.337784,641.569153
    L 211.546173,646.551453
    L 183.692001,658.866577
    L 138.616745,691.018616
    L 138.917084,659.145752
    L 166.180176,633.154053
    L 142.575867,605.536987
    L 131.438370,574.839905
    L 190.465927,570.144043
    L 221.036316,596.053833
    L 207.385773,622.290527
    Z"/>
  />
  <path id="blob_65" style="fill:#666666"
   d="M 514.949219,271.567535
    L 475.928070,269.914398
    L 470.099854,302.888885
    L 439.674622,275.500122
    L 408.875366,258.902069
    L 389.734314,235.932999
    L 404.063477,207.822632
    L 429.141205,194.663330
    L 474.177063,167.815918
    L 489.743591,186.224243
    L 519.315125,237.077637
    Z"/>
  />
  <path id="blob_66" style="fill:#cccccc"
   d="M 667.010254,226.513184
    L 654.545349,255.133774
    L 622.878235,223.684479
    L 594.297424,244.964066
    L 555.985413,244.053497
    L 593.433167,203.646179
    L 585.401001,193.840439
    L 579.010498,148.720810
    L 620.298340,180.685440
    L 639.945862,171.562546
    L 638.866150,193.203384
    Z"/>
  />
  <path id="blob_67" style="fill:#888888"
   d="M 237.456512,696.765686
    L 240.777161,727.941223
    L 222.110687,730.997620
    L 202.664154,745.804443
    L 185.098953,721.279114
    L 131.613922,723.584351
    L 167.124115,684.924255
    L 178.177551,673.999634
    L 184.130203,668.767029
    L 168.552078,621.581177
    L 204.109818,652.578796
    L 216.920990,661.374023
    L 240.953094,658.632202
    L 267.807739,669.381042
    Z"/>
  />
  <path id="blob_68" style="fill:#666666"
   d="M 192.040359,131.093750
    L 179.374603,148.016602
    L 158.543137,157.555817
    L 136.124695,170.163773
    L 111.544907,140.158340
    L 73.329895,153.756866
    L 77.506119,124.853729
    L 60.900925,94.378189
    L 101.276344,90.337708
    L 105.109131,72.132004
    L 118.162231,58.309319
    L 133.236267,90.379784
    L 161.575439,44.653584
    L 155.564972,94.671547
    L 195.630249,94.007751
    Z"/>
  />
  <path id="blob_69" style="fill:#ffffff"
   d="M 400.658905,557.149353
    L 358.427124,588.210205
    L 316.940765,585.722961
    L 312.306396,559.775696
    L 277.352753,536.264954
    L 303.447388,486.702850
    L 326.473541,475.290192
    L 349.671783,508.264557
    L 366.039978,527.832092
    Z"/>
  />
  <path id="blob_70" style="fill:#444444"
   d="M 336.601562,271.443909
    L 346.049225,299.891266
    L 329.355469,320.991669
    L 313.467712,310.713348
    L 292.100342,299.842407
    L 280.224670,289.392242
    L 239.559906,288.485992
    L 282.856689,264.406891
    L 263.490295,239.995255
    L 304.447662,234.810791
    L 313.377441,228.366577
    L 354.783813,200.153229
    L 367.261292,225.765945
    L 337.008392,256.817444
    Z"/>
  />
  <path id="blob_71" style="fill:#aaaaaa"
   d="M 469.303162,296.519653
    L 443.109161,302.252106
    L 417.895233,303.049927
    L 398.512451,269.907257
    L 390.828125,248.537811
    L 390.395966,201.565216
    L 421.956238,216.841888
    L 439.416901,220.267151
    Z"/>
  />
  <path id="blob_72" style="fill:#666666"
   d="M 763.054993,105.070938
    L 760.222656,123.526100
    L 736.632141,126.095749
    L 707.514221,143.748047
    L 683.689270,124.679398
    L 681.584229,107.221848
    L 664.532776,97.625443
    L 677.217102,66.257324
    L 693.024353,39.779404
    L 714.318176,39.094765
    L 754.839111,25.690094
    L 734.274170,76.338799
    L 761.862549,80.143753
    Z"/>
  />
  <path id="blob_73" style="fill:#444444"
   d="M 663.375122,650.360535
    L 626.147888,639.650757
    L 618.622314,643.798767
    L 574.292847,672.162537
    L 588.626770,617.364746
    L 604.988403,609.466858
    L 610.166809,575.028809
    L 638.135010,587.475830
    L 663.793030,615.369751
    Z"/>
  />
  <path id="blob_74" style="fill:#eeeeee"
   d="M 689.257019,430.546326
    L 684.909851,472.893250
    L 650.041504,462.658936
    L 640.401489,443.299133
    L 626.631348,428.759918
    L 596.239624,407.756226
    L 589.083679,380.526886
    L 634.612671,362.047089
    L 665.879700,374.388733
    L 670.330383,404.385834
    L 696.836365,407.966553
    Z"/>
  />
  <path id="blob_75" style="fill:#444444"
   d="M 94.438194,265.508057
    L 67.620140,275.920013
    L 49.282852,267.923096
    L 37.493298,278.058228
    L 13.106016,286.443298
    L 17.610485,260.725403
    L -4.805786,251.199417
    L -0.685921,236.252502
    L -3.142174,220.341660
    L 1.372978,190.121887
    L 35.826687,227.238281
    L 44.666992,225.648544
    L 70.596909,193.572754
    L 91.379150,225.305557
    Z"/>
  />
  <path id="blob_76" style="fill:#666666"
   d="M 264.436401,333.330658
    L 227.421371,328.997406
    L 210.234787,331.301270
    L 193.931961,363.234375
    L 190.034409,324.220215
    L 171.854675,316.707703
    L 180.427856,303.152679
    L 158.539886,273.383179
    L 168.932144,236.236694
    L 200.276184,236.019058
    L 217.295563,244.860001
    L 226.502228,292.597046
    L 246.963730,298.314697
    Z"/>
  />
  <path id="blob_77" style="fill:#ffffff"
   d="M 377.968170,504.354706
    L 370.405457,534.685852
    L 331.066864,525.136719
    L 315.483185,506.807983
    L 291.535706,490.119843
    L 272.965942,468.438812
    L 300.921448,432.274109
    L 343.608002,449.985046
    L 365.600830,449.886047
    L 398.782410,460.042694
    Z"/>
  />
  <path id="blob_78" style="fill:#888888"
   d="M 549.703979,126.273041
    L 489.423676,115.782104
    L 480.586548,122.474159
    L 447.363647,95.277206
    L 449.883057,68.432175
    L 478.803284,46.793449
    L 513.748596,37.079292
    L 530.702393,70.280655
    Z"/>
  />
  <path id="blob_79" style="fill:#000000"
   d="M 717.601562,582.998413
    L 739.181519,626.413086
    L 673.226196,610.868408
    L 671.550903,572.684509
    L 662.005798,545.317139
    L 677.239807,537.593628
    L 699.067810,492.002991
    L 722.972900,542.266052
    Z"/>
  />
  <path id="blob_80" style="fill:#222222"
   d="M 608.177795,368.391052
    L 583.864746,369.912384
    L 595.743164,408.526825
    L 559.415344,388.992279
    L 550.710754,371.514557
    L 545.685547,367.294556
    L 531.412292,366.180786
    L 483.993958,335.124329
    L 506.279938,315.485809
    L 527.009033,313.567719
    L 543.760864,316.338776
    L 567.891418,311.105927
    L 575.102844,324.722565
    L 600.078186,327.401917
    L 598.430908,345.161804
    Z"/>
  />
  <path id="blob_81" style="fill:#888888"
   d="M 147.772781,194.673004
    L 138.549561,201.443787
    L 129.308960,204.523819
    L 121.523285,238.402969
    L 108.998978,225.518005
    L 103.087654,190.791580
    L 77.378815,176.082474
    L 100.172722,154.167740
    L 123.803032,114.775749
    L 151.642242,127.583862
    L 177.559784,132.085022
    L 200.140976,184.411057
    Z"/>
  />
  <path id="blob_82" style="fill:#000000"
   d="M 639.986389,503.908417
    L 654.717041,544.821411
    L 629.381653,562.504211
    L 571.723877,536.249878
    L 539.118347,497.105865
    L 541.622131,468.727722
    L 600.914795,477.571533
    L 586.535156,440.056244
    L 640.432861,428.718628
    L 645.971008,453.112396
    Z"/>
  />
  <path id="blob_83" style="fill:#666666"
   d="M 418.752960,663.569519
    L 401.330597,667.524780
    L 392.911835,675.040039
    L 378.734467,674.103821
    L 368.392181,671.619995
    L 339.652710,652.902100
    L 329.197693,635.993774
    L 327.932800,605.767151
    L 378.869690,603.315430
    L 426.214417,580.012756
    L 448.601440,604.083740
    L 411.188843,647.422119
    Z"/>
  />
  <path id="blob_84" style="fill:#666666"
   d="M 623.035767,193.713684
    L 572.797913,184.417023
    L 572.895386,193.488586
    L 578.570190,229.426697
    L 555.524597,244.301086
    L 524.850647,210.406311
    L 504.296814,208.087250
    L 531.831482,180.843552
    L 522.573730,167.767365
    L 534.127258,162.202652
    L 517.692017,104.306458
    L 548.395813,137.736145
    L 578.460022,111.722908
    L 591.348206,128.429047
    L 620.278442,134.598389
    L 623.280762,153.986267
    Z"/>
  />
  <path id="blob_85" style="fill:#222222"
   d="M 118.496422,597.508118
    L 89.269989,615.136902
    L 51.590786,606.498840
    L 30.804199,639.003113
    L 31.444878,597.842529
    L -0.408234,569.311218
    L 27.174370,560.592957
    L 26.594608,542.689514
    L 24.501028,512.915039
    L 65.181770,494.892700
    L 97.170624,515.288574
    L 118.476669,551.027344
    Z"/>
  />
  <path id="blob_86" style="fill:#888888"
   d="M 231.937698,436.786774
    L 208.637390,439.115021
    L 180.128326,471.918579
    L 173.984848,437.760651
    L 164.124908,427.214935
    L 162.280273,410.430115
    L 172.008774,382.343018
    L 197.325928,387.787903
    L 216.135773,383.802582
    Z"/>
  />
  <path id="blob_87" style="fill:#aaaaaa"
   d="M 243.806046,583.301147
    L 251.954605,616.770508
    L 225.930145,613.822876
    L 211.472015,649.465820
    L 197.616257,603.920410
    L 177.412460,600.603821
    L 183.331360,578.371887
    L 145.310333,574.072632
    L 170.664139,558.766296
    L 176.209885,528.314209
    L 193.819107,528.706177
    L 208.406906,548.327942
    L 245.419601,507.850098
    L 252.377304,535.822998
    L 237.435379,561.108154
    Z"/>
  />
  <path id="blob_88" style="fill:#666666"
   d="M 186.995392,559.487122
    L 154.028397,575.054688
    L 133.327332,596.073730
    L 109.067497,585.114624
    L 96.731964,580.356567
    L 90.442261,558.632324
    L 47.542984,570.572571
    L 94.332123,536.649475
    L 44.425743,506.537292
    L 96.274719,518.141113
    L 105.801468,467.396515
    L 119.389847,498.267395
    L 132.230225,507.468842
    L 129.327042,526.833984
    L 149.496704,533.815369
    Z"/>
  />
  <path id="blob_89" style="fill:#aaaaaa"
   d="M 568.149048,436.536713
    L 575.024109,457.670929
    L 566.957031,482.359131
    L 539.788696,459.787109
    L 531.714722,445.972046
    L 512.274963,461.506348
    L 496.462799,458.145508
    L 493.295074,438.070251
    L 501.632233,416.198395
    L 487.734650,390.634460
    L 506.444214,366.069153
    L 539.334778,390.285370
    L 561.822876,367.513092
    L 553.449219,410.469330
    L 602.856628,395.464447
    L 577.219421,426.306580
    Z"/>
  />
  <path id="blob_90" style="fill:#aaaaaa"
   d="M 103.172623,365.602631
    L 55.209850,374.730286
    L 38.244820,368.008362
    L -5.949303,390.437256
    L 24.621918,344.793213
    L 3.679832,330.300690
    L 5.368271,301.121338
    L 36.112236,322.599976
    L 52.573639,318.380646
    L 72.472771,320.947479
    Z"/>
  />
  <path id="blob_91" style="fill:#aaaaaa"
   d="M 49.655708,425.167847
    L 43.605930,471.021332
    L 1.963526,463.073669
    L -5.134232,430.009003
    L -32.668480,422.991943
    L -9.356775,397.529297
    L 3.250641,378.979584
    L 7.753263,362.519623
    L 27.685837,368.742920
    L 73.532410,395.617737
    Z"/>
  />
  <path id="blob_92" style="fill:#666666"
   d="M 729.795166,26.994938
    L 744.680847,87.489075
    L 675.387573,92.333374
    L 660.755127,58.133152
    L 674.779175,27.366592
    L 687.079651,3.308939
    L 716.508972,-4.584572
    L 736.920715,-11.936832
    L 789.648254,6.906882
    Z"/>
  />
  <path id="blob_93" style="fill:#cccccc"
   d="M 571.697021,659.209167
    L 549.087646,691.967041
    L 531.119690,703.332703
    L 487.176331,671.162842
    L 476.521790,645.874146
    L 481.890167,580.892212
    L 528.244629,573.971008
    L 549.827881,618.700928
    L 564.468689,623.056641
    Z"/>
  />
  <path id="blob_94" style="fill:#888888"
   d="M 317.357758,413.170746
    L 297.403870,439.906372
    L 260.001984,426.754547
    L 248.782349,414.501770
    L 236.415344,415.668945
    L 199.312912,437.284119
    L 198.790192,406.645905
    L 202.839081,387.648010
    L 183.256592,362.369141
    L 191.499756,340.386505
    L 235.325836,332.644897
    L 260.882446,334.699219
    L 259.176971,379.275848
    L 268.900513,383.548248
    L 283.786469,393.220215
    Z"/>
  />
  <path id="blob_95" style="fill:#cccccc"
   d="M 176.857742,464.238007
    L 176.468201,471.882080
    L 178.733658,486.018829
    L 173.277802,507.294037
    L 159.290833,536.991028
    L 141.826416,513.435120
    L 131.350433,483.011353
    L 107.235214,469.646759
    L 122.689217,452.748230
    L 94.487930,422.050751
    L 151.384689,439.763336
    L 157.997940,386.039856
    L 177.267944,389.380615
    L 185.898483,414.871826
    L 192.724487,441.437622
    L 220.937805,453.562500
    Z"/>
  />
  <path id="blob_96" style="fill:#666666"
   d="M 341.382141,351.378693
    L 283.026978,360.432587
    L 263.371948,340.042053
    L 245.878220,357.966736
    L 223.275696,346.595886
    L 222.892960,290.536041
    L 256.721680,290.950775
    L 276.103119,252.926605
    L 290.419830,284.508698
    L 308.907318,312.091644
    Z"/>
  />
  <path id="blob_97" style="fill:#888888"
   d="M 625.063904,697.370605
    L 605.072998,719.597229
    L 588.287781,737.444153
    L 551.712402,755.795654
    L 529.570496,733.264587
    L 528.288757,706.131287
    L 536.026367,676.299927
    L 553.925781,664.298340
    L 546.421021,612.735840
    L 578.364807,618.396973
    L 587.488892,649.528687
    L 610.187012,653.594666
    L 609.136169,677.642395
    Z"/>
  />
  <path id="blob_98" style="fill:#222222"
   d="M 638.355103,274.422424
    L 658.919556,316.326660
    L 588.219788,334.992737
    L 562.535950,300.190552
    L 580.825500,259.153412
    L 585.043030,246.423416
    L 603.535522,231.173218
    L 635.224182,215.278168
    L 644.212646,245.932068
    Z"/>
  />
  <path id="blob_99" style="fill:#aaaaaa"
   d="M 440.513428,589.034424
    L 402.722626,583.128174
    L 384.075043,645.087463
    L 376.866486,588.045593
    L 362.589478,582.450745
    L 308.624054,587.297974
    L 360.298859,565.971375
    L 350.665405,524.046082
    L 375.553314,507.174774
    L 392.593140,543.094910
    L 416.638489,543.280945
    L 420.267914,558.010864
    Z"/>
  />
 </g>
</svg>
